<?xml version="1.0" encoding="UTF-8" standalone="no"?>
<!-- Created with Inkscape (http://www.inkscape.org/) -->

<svg
   xmlns:dc="http://purl.org/dc/elements/1.1/"
   xmlns:cc="http://creativecommons.org/ns#"
   xmlns:rdf="http://www.w3.org/1999/02/22-rdf-syntax-ns#"
   xmlns:svg="http://www.w3.org/2000/svg"
   xmlns="http://www.w3.org/2000/svg"
   xmlns:sodipodi="http://sodipodi.sourceforge.net/DTD/sodipodi-0.dtd"
   xmlns:inkscape="http://www.inkscape.org/namespaces/inkscape"
   width="250mm"
   height="50mm"
   viewBox="0 0 250 50"
   version="1.1"
   id="svg5067"
   sodipodi:docname="iso.svg"
   inkscape:version="0.92.3 (2405546, 2018-03-11)"
   inkscape:export-filename="/opt/odoo/13/sources/grancorte/theme_grancorte/static/src/img/content/iso.png"
   inkscape:export-xdpi="62"
   inkscape:export-ydpi="62">
  <defs
     id="defs5061" />
  <sodipodi:namedview
     id="base"
     pagecolor="#ffffff"
     bordercolor="#666666"
     borderopacity="1.0"
     inkscape:pageopacity="0.0"
     inkscape:pageshadow="2"
     inkscape:zoom="0.49497475"
     inkscape:cx="545.589"
     inkscape:cy="115.53288"
     inkscape:document-units="mm"
     inkscape:current-layer="layer1"
     showgrid="false"
     inkscape:window-width="1920"
     inkscape:window-height="1172"
     inkscape:window-x="1366"
     inkscape:window-y="0"
     inkscape:window-maximized="1" />
  <metadata
     id="metadata5064">
    <rdf:RDF>
      <cc:Work
         rdf:about="">
        <dc:format>image/svg+xml</dc:format>
        <dc:type
           rdf:resource="http://purl.org/dc/dcmitype/StillImage" />
        <dc:title></dc:title>
      </cc:Work>
    </rdf:RDF>
  </metadata>
  <g
     inkscape:label="Capa 1"
     inkscape:groupmode="layer"
     id="layer1"
     transform="translate(0,-247)">
    <g
       id="g5799"
       transform="translate(13.730045)">
      <g
         id="g1262"
         transform="matrix(0.03527778,0,0,-0.03527778,-9.6003769,1263.0944)">
        <g
           id="g48"
           transform="scale(10)">
          <g
             id="text52"
             style="font-variant:normal;font-weight:bold;font-size:73.21199799px;font-family:Montserrat;-inkscape-font-specification:Montserrat-Bold;writing-mode:lr-tb;fill:#061950;fill-opacity:1;fill-rule:nonzero;stroke:none"
             transform="matrix(1,0,0,-1,185.787,2793.54)"
             aria-label="GRAN">
            <path
               inkscape:connector-curvature="0"
               id="path4968"
               d="m 40.705871,-26.429531 h 10.835376 v 20.7922072 q -4.173084,3.1481159 -9.663984,4.83199182 -5.4909,1.68387596 -11.055012,1.68387596 -7.980108,0 -14.349551,-3.36775188 -6.369444,-3.4409639 -10.0300442,-9.4443481 -3.5873879,-6.076596 -3.5873879,-13.690643 0,-7.614048 3.5873879,-13.617432 3.6606002,-6.076596 10.1032562,-9.444348 6.442655,-3.440964 14.495975,-3.440964 6.735504,0 12.226404,2.269572 5.4909,2.269572 9.224712,6.58908 l -7.614048,7.028352 q -5.4909,-5.783748 -13.251372,-5.783748 -4.905204,0 -8.712228,2.049936 -3.807024,2.049936 -5.930171,5.783748 -2.123148,3.733812 -2.123148,8.565804 0,4.75878 2.123148,8.492591 2.123147,3.733812 5.856959,5.85696 3.807024,2.0499363 8.639016,2.0499363 5.12484,0 9.224712,-2.1963603 z" />
            <path
               inkscape:connector-curvature="0"
               id="path4970"
               d="m 92.247118,0 -9.88362,-14.27634 H 81.777802 71.454911 V 0 H 59.594567 v -51.248399 h 22.183235 q 6.808716,0 11.787132,2.269572 5.051628,2.269572 7.760476,6.442656 2.70884,4.173084 2.70884,9.88362 0,5.710536 -2.78206,9.88362 -2.70884,4.099872 -7.760468,6.296231 L 104.98601,0 Z m -0.219636,-32.652551 q 0,-4.319508 -2.782056,-6.58908 -2.782056,-2.342784 -8.126532,-2.342784 h -9.663983 v 17.863728 h 9.663983 q 5.344476,0 8.126532,-2.342784 2.782056,-2.342784 2.782056,-6.58908 z" />
            <path
               inkscape:connector-curvature="0"
               id="path4972"
               d="m 147.15612,-10.9818 h -23.7939 L 118.82307,0 h -12.15319 l 22.84214,-51.248399 h 11.71392 L 164.1413,0 h -12.44604 z m -3.73382,-9.005075 -8.12653,-19.620816 -8.12653,19.620816 z" />
            <path
               inkscape:connector-curvature="0"
               id="path4974"
               d="M 216.48788,-51.248399 V 0 h -9.7372 L 181.1997,-31.115099 V 0 h -11.71392 v -51.248399 h 9.8104 l 25.47778,31.1151 v -31.1151 z" />
          </g>
          <g
             id="text56"
             style="font-variant:normal;font-weight:500;font-size:73.21199799px;font-family:Montserrat;-inkscape-font-specification:Montserrat-Medium;writing-mode:lr-tb;fill:#061950;fill-opacity:1;fill-rule:nonzero;stroke:none"
             transform="matrix(1,0,0,-1,408.351,2793.54)"
             aria-label="CORTE">
            <path
               inkscape:connector-curvature="0"
               id="path4977"
               d="m 30.602615,0.58569598 q -7.68726,0 -13.910279,-3.36775188 -6.149808,-3.4409639 -9.6639842,-9.3711361 -3.5141759,-6.003384 -3.5141759,-13.471007 0,-7.467624 3.5141759,-13.397796 3.5141762,-6.003384 9.7371962,-9.371136 6.223019,-3.440964 13.910279,-3.440964 6.003384,0 10.9818,2.049936 4.978416,1.976724 8.492592,5.930172 l -4.75878,4.612356 q -5.783748,-6.076596 -14.422764,-6.076596 -5.710536,0 -10.322892,2.56242 -4.612355,2.56242 -7.247987,7.101564 -2.56242,4.465932 -2.56242,10.030044 0,5.564112 2.56242,10.103255 2.635632,4.465932 7.247987,7.0283522 4.612356,2.56242 10.322892,2.56242 8.565804,0 14.422764,-6.1498082 l 4.75878,4.6123562 q -3.514176,3.9534479 -8.565804,6.0033838 -4.978416,2.04993598 -10.9818,2.04993598 z" />
            <path
               inkscape:connector-curvature="0"
               id="path4979"
               d="m 79.727719,0.58569598 q -7.760472,0 -13.983491,-3.36775188 -6.22302,-3.4409639 -9.810408,-9.4443481 -3.514176,-6.003383 -3.514176,-13.397795 0,-7.394412 3.514176,-13.397796 3.587388,-6.003384 9.810408,-9.371136 6.223019,-3.440964 13.983491,-3.440964 7.68726,0 13.91028,3.440964 6.22302,3.367752 9.737191,9.371136 3.51418,5.930172 3.51418,13.397796 0,7.467623 -3.51418,13.471007 -3.514171,5.9301722 -9.737191,9.3711361 -6.22302,3.36775188 -13.91028,3.36775188 z m 0,-6.51586778 q 5.637324,0 10.103256,-2.56242 4.539144,-2.5624202 7.101564,-7.0283522 2.635632,-4.539143 2.635632,-10.103255 0,-5.564112 -2.635632,-10.030044 -2.56242,-4.539144 -7.101564,-7.101564 -4.465932,-2.56242 -10.103256,-2.56242 -5.637324,0 -10.24968,2.56242 -4.539143,2.56242 -7.174775,7.101564 -2.56242,4.465932 -2.56242,10.030044 0,5.564112 2.56242,10.103255 2.635632,4.465932 7.174775,7.0283522 4.612356,2.56242 10.24968,2.56242 z" />
            <path
               inkscape:connector-curvature="0"
               id="path4981"
               d="m 147.96106,0 -11.05501,-15.74058 q -2.04994,0.146424 -3.22133,0.146424 H 121.01904 V 0 h -7.3212 v -51.248399 h 19.98688 q 9.95683,0 15.66736,4.75878 5.71054,4.75878 5.71054,13.104948 0,5.930172 -2.92848,10.103256 -2.92848,4.173084 -8.34617,6.076595 L 155.94116,0 Z m -14.49598,-21.817175 q 6.95514,0 10.61574,-3.001692 3.6606,-3.001692 3.6606,-8.565804 0,-5.564112 -3.6606,-8.492592 -3.6606,-3.001692 -10.61574,-3.001692 h -12.44604 v 23.06178 z" />
            <path
               inkscape:connector-curvature="0"
               id="path4983"
               d="m 176.36769,-44.878955 h -17.57087 v -6.369444 h 42.38974 v 6.369444 H 183.61568 V 0 h -7.24799 z" />
            <path
               inkscape:connector-curvature="0"
               id="path4985"
               d="M 244.89426,-6.3694438 V 0 h -37.1917 v -51.248399 h 36.16673 v 6.369444 h -28.84553 v 15.74058 h 25.69742 v 6.22302 h -25.69742 v 16.5459112 z" />
          </g>
        </g>
        <g
           id="g58"
           transform="scale(10)">
          <g
             id="text62"
             style="font-variant:normal;font-weight:normal;font-size:25.94199944px;font-family:Montserrat;-inkscape-font-specification:Montserrat-Regular;writing-mode:lr-tb;fill:#c5a15b;fill-opacity:1;fill-rule:nonzero;stroke:none"
             transform="matrix(1,0,0,-1,291.173,2756.08)"
             aria-label="carnes selectas">
            <path
               inkscape:connector-curvature="0"
               id="path4988"
               d="m 8.2236138,0.12971 q -2.0234759,0 -3.6318799,-0.88202798 Q 3.0092719,-1.634346 2.101302,-3.2168079 q -0.90797,-1.608404 -0.90797,-3.605938 0,-1.9975339 0.90797,-3.5799961 0.9079699,-1.582462 2.4904319,-2.46449 1.608404,-0.882028 3.6318799,-0.882028 1.764056,0 3.1389822,0.700434 1.400868,0.674492 2.20507,1.997534 l -1.374926,0.933912 q -0.674492,-1.011738 -1.712172,-1.504636 -1.0376802,-0.51884 -2.2569542,-0.51884 -1.4786939,0 -2.6720259,0.674492 -1.16739,0.64855 -1.841882,1.8678242 -0.64855,1.219274 -0.64855,2.7757939 0,1.582462 0.64855,2.801736 0.674492,1.193332 1.841882,1.8678239 1.193332,0.64855 2.6720259,0.64855 1.219274,0 2.2569542,-0.492898 1.03768,-0.4928979 1.712172,-1.5046359 l 1.374926,0.933912 Q 12.763464,-1.245216 11.362596,-0.54478199 9.9617278,0.12971 8.2236138,0.12971 Z" />
            <path
               inkscape:connector-curvature="0"
               id="path4990"
               d="m 27.282605,-13.74926 q 2.672026,0 4.098836,1.348984 1.42681,1.323042 1.42681,3.9431842 V 0 H 31.044195 V -2.127244 Q 30.421587,-1.063622 29.202313,-0.46695599 28.008981,0.12971 26.348693,0.12971 q -2.282896,0 -3.63188,-1.08956398 -1.348984,-1.08956402 -1.348984,-2.87956192 0,-1.738114 1.245216,-2.801736 1.271158,-1.0636219 4.02101,-1.0636219 h 4.332314 v -0.830144 q 0,-1.7640562 -0.985796,-2.6720262 -0.985796,-0.933912 -2.879562,-0.933912 -1.2971,0 -2.490432,0.441014 -1.193332,0.415072 -2.049418,1.16739 l -0.830144,-1.374926 q 1.03768,-0.882028 2.490432,-1.348984 1.452752,-0.492898 3.061156,-0.492898 z m -0.64855,12.426218 q 1.55652,0 2.672026,-0.700434 1.115506,-0.7263759 1.660288,-2.0753599 v -2.231012 h -4.28043 q -3.50217,0 -3.50217,2.438548 0,1.193332 0.90797,1.8937659 0.90797,0.674492 2.542316,0.674492 z" />
            <path
               inkscape:connector-curvature="0"
               id="path4992"
               d="m 44.914345,-10.973466 q 0.64855,-1.374926 1.919708,-2.07536 1.2971,-0.700434 3.190866,-0.700434 v 1.789998 l -0.441014,-0.02594 q -2.153186,0 -3.37246,1.323042 -1.219274,1.3230422 -1.219274,3.7097062 V 0 h -1.841882 v -13.645492 h 1.764056 z" />
            <path
               inkscape:connector-curvature="0"
               id="path4994"
               d="m 65.633621,-13.74926 q 2.568258,0 4.072894,1.504636 1.530578,1.478694 1.530578,4.3323142 V 0 h -1.841882 v -7.7307158 q 0,-2.127244 -1.063622,-3.2427502 -1.063622,-1.115506 -3.035214,-1.115506 -2.20507,0 -3.50217,1.323042 -1.271158,1.2971002 -1.271158,3.6059382 V 0 h -1.841882 v -13.645492 h 1.764056 v 2.516374 q 0.752318,-1.245216 2.07536,-1.919708 1.348984,-0.700434 3.11304,-0.700434 z" />
            <path
               inkscape:connector-curvature="0"
               id="path4996"
               d="m 93.512606,-6.2520219 h -11.41448 q 0.155652,2.127244 1.634346,3.450286 1.478694,1.2970999 3.735648,1.2970999 1.271158,0 2.33478,-0.441014 1.063622,-0.4669559 1.841882,-1.3489839 l 1.03768,1.1933319 q -0.90797,1.089564 -2.282896,1.66028801 Q 89.050582,0.12971 87.416236,0.12971 q -2.101302,0 -3.735648,-0.88202798 -1.608404,-0.90797002 -2.516374,-2.49043192 -0.90797,-1.582462 -0.90797,-3.579996 0,-1.9975339 0.856086,-3.5799961 0.882028,-1.582462 2.386664,-2.46449 1.530578,-0.882028 3.424344,-0.882028 1.893766,0 3.398402,0.882028 1.504636,0.882028 2.360722,2.46449 0.856086,1.5565202 0.856086,3.5799961 z m -6.589268,-5.9147761 q -1.971592,0 -3.320576,1.271158 -1.323042,1.2452162 -1.504636,3.2686922 h 9.676366 q -0.181594,-2.023476 -1.530578,-3.2686922 -1.323042,-1.271158 -3.320576,-1.271158 z" />
            <path
               inkscape:connector-curvature="0"
               id="path4998"
               d="m 106.29368,0.12971 q -1.66029,0 -3.19087,-0.46695599 -1.50464,-0.49289799 -2.36072,-1.21927401 l 0.83014,-1.4527519 q 0.85609,0.674492 2.15319,1.1155059 1.2971,0.415072 2.69797,0.415072 1.86782,0 2.74985,-0.570724 0.90797,-0.5966659 0.90797,-1.6602879 0,-0.752318 -0.4929,-1.16739 -0.4929,-0.441014 -1.24522,-0.64855 -0.75231,-0.233478 -1.99753,-0.441014 -1.66029,-0.311304 -2.67203,-0.622608 -1.01173,-0.3372459 -1.73811,-1.1155059 -0.70043,-0.77826 -0.70043,-2.153186 0,-1.7121722 1.42681,-2.8017362 1.42681,-1.089564 3.96912,-1.089564 1.32304,0 2.64609,0.363188 1.32304,0.337246 2.17912,0.90797 l -0.8042,1.478694 q -1.68623,-1.16739 -4.02101,-1.16739 -1.76405,0 -2.67202,0.622608 -0.88203,0.622608 -0.88203,1.6343462 0,0.77826 0.4929,1.245216 0.51884,0.466956 1.27115,0.700434 0.75232,0.207536 2.07536,0.441014 1.63435,0.311304 2.62015,0.622608 0.98579,0.3113039 1.68623,1.0636219 0.70043,0.752318 0.70043,2.07536 0,1.7899979 -1.50464,2.85361992 Q 108.93976,0.12971 106.29368,0.12971 Z" />
            <path
               inkscape:connector-curvature="0"
               id="path5000"
               d="m 137.90853,0.12971 q -1.66029,0 -3.19087,-0.46695599 -1.50463,-0.49289799 -2.36072,-1.21927401 l 0.83015,-1.4527519 q 0.85608,0.674492 2.15318,1.1155059 1.2971,0.415072 2.69797,0.415072 1.86782,0 2.74985,-0.570724 0.90797,-0.5966659 0.90797,-1.6602879 0,-0.752318 -0.4929,-1.16739 -0.49289,-0.441014 -1.24521,-0.64855 -0.75232,-0.233478 -1.99754,-0.441014 -1.66028,-0.311304 -2.67202,-0.622608 -1.01174,-0.3372459 -1.73812,-1.1155059 -0.70043,-0.77826 -0.70043,-2.153186 0,-1.7121722 1.42681,-2.8017362 1.42681,-1.089564 3.96913,-1.089564 1.32304,0 2.64608,0.363188 1.32304,0.337246 2.17913,0.90797 l -0.8042,1.478694 q -1.68623,-1.16739 -4.02101,-1.16739 -1.76406,0 -2.67203,0.622608 -0.88203,0.622608 -0.88203,1.6343462 0,0.77826 0.4929,1.245216 0.51884,0.466956 1.27116,0.700434 0.75232,0.207536 2.07536,0.441014 1.63434,0.311304 2.62014,0.622608 0.9858,0.3113039 1.68623,1.0636219 0.70043,0.752318 0.70043,2.07536 0,1.7899979 -1.50463,2.85361992 Q 140.55461,0.12971 137.90853,0.12971 Z" />
            <path
               inkscape:connector-curvature="0"
               id="path5002"
               d="m 164.15361,-6.2520219 h -11.41448 q 0.15565,2.127244 1.63435,3.450286 1.47869,1.2970999 3.73565,1.2970999 1.27115,0 2.33478,-0.441014 1.06362,-0.4669559 1.84188,-1.3489839 l 1.03768,1.1933319 q -0.90797,1.089564 -2.2829,1.66028801 -1.34898,0.57072399 -2.98333,0.57072399 -2.1013,0 -3.73565,-0.88202798 -1.6084,-0.90797002 -2.51637,-2.49043192 -0.90797,-1.582462 -0.90797,-3.579996 0,-1.9975339 0.85609,-3.5799961 0.88202,-1.582462 2.38666,-2.46449 1.53058,-0.882028 3.42434,-0.882028 1.89377,0 3.39841,0.882028 1.50463,0.882028 2.36072,2.46449 0.85608,1.5565202 0.85608,3.5799961 z m -6.58927,-5.9147761 q -1.97159,0 -3.32057,1.271158 -1.32304,1.2452162 -1.50464,3.2686922 h 9.67637 q -0.1816,-2.023476 -1.53058,-3.2686922 -1.32304,-1.271158 -3.32058,-1.271158 z" />
            <path
               inkscape:connector-curvature="0"
               id="path5004"
               d="m 173.27649,-19.248964 h 1.84189 V 0 h -1.84189 z" />
            <path
               inkscape:connector-curvature="0"
               id="path5006"
               d="m 197.47237,-6.2520219 h -11.41448 q 0.15565,2.127244 1.63434,3.450286 1.4787,1.2970999 3.73565,1.2970999 1.27116,0 2.33478,-0.441014 1.06362,-0.4669559 1.84188,-1.3489839 l 1.03768,1.1933319 q -0.90797,1.089564 -2.28289,1.66028801 Q 193.01034,0.12971 191.376,0.12971 q -2.1013,0 -3.73565,-0.88202798 -1.6084,-0.90797002 -2.51637,-2.49043192 -0.90797,-1.582462 -0.90797,-3.579996 0,-1.9975339 0.85608,-3.5799961 0.88203,-1.582462 2.38667,-2.46449 1.53057,-0.882028 3.42434,-0.882028 1.89377,0 3.3984,0.882028 1.50464,0.882028 2.36072,2.46449 0.85609,1.5565202 0.85609,3.5799961 z m -6.58927,-5.9147761 q -1.97159,0 -3.32058,1.271158 -1.32304,1.2452162 -1.50463,3.2686922 h 9.67636 q -0.18159,-2.023476 -1.53057,-3.2686922 -1.32305,-1.271158 -3.32058,-1.271158 z" />
            <path
               inkscape:connector-curvature="0"
               id="path5008"
               d="m 212.25062,0.12971 q -2.02347,0 -3.63188,-0.88202798 -1.58246,-0.88202802 -2.49043,-2.46448992 -0.90797,-1.608404 -0.90797,-3.605938 0,-1.9975339 0.90797,-3.5799961 0.90797,-1.582462 2.49043,-2.46449 1.60841,-0.882028 3.63188,-0.882028 1.76406,0 3.13898,0.700434 1.40087,0.674492 2.20507,1.997534 l -1.37492,0.933912 q -0.67449,-1.011738 -1.71217,-1.504636 -1.03768,-0.51884 -2.25696,-0.51884 -1.47869,0 -2.67202,0.674492 -1.16739,0.64855 -1.84189,1.8678242 -0.64855,1.219274 -0.64855,2.7757939 0,1.582462 0.64855,2.801736 0.6745,1.193332 1.84189,1.8678239 1.19333,0.64855 2.67202,0.64855 1.21928,0 2.25696,-0.492898 1.03768,-0.4928979 1.71217,-1.5046359 l 1.37492,0.933912 q -0.8042,1.3230419 -2.20507,2.02347591 Q 213.98874,0.12971 212.25062,0.12971 Z" />
            <path
               inkscape:connector-curvature="0"
               id="path5010"
               d="m 233.87771,-0.83014398 q -0.51884,0.46695599 -1.2971,0.72637598 -0.75232,0.233478 -1.58246,0.233478 -1.91971,0 -2.95739,-1.03767998 -1.03768,-1.03768002 -1.03768,-2.93144592 v -8.2495561 h -2.43855 v -1.55652 h 2.43855 v -2.98333 h 1.84188 v 2.98333 h 4.15072 v 1.55652 h -4.15072 v 8.1457881 q 0,1.219274 0.59667,1.8678239 0.62261,0.622608 1.76406,0.622608 0.57072,0 1.08956,-0.181594 0.54478,-0.181594 0.93391,-0.51884 z" />
            <path
               inkscape:connector-curvature="0"
               id="path5012"
               d="m 247.33344,-13.74926 q 2.67202,0 4.09883,1.348984 1.42681,1.323042 1.42681,3.9431842 V 0 h -1.76405 v -2.127244 q -0.62261,1.063622 -1.84188,1.66028801 -1.19334,0.59666599 -2.85362,0.59666599 -2.2829,0 -3.63188,-1.08956398 -1.34899,-1.08956402 -1.34899,-2.87956192 0,-1.738114 1.24522,-2.801736 1.27116,-1.0636219 4.02101,-1.0636219 h 4.33231 v -0.830144 q 0,-1.7640562 -0.98579,-2.6720262 -0.9858,-0.933912 -2.87957,-0.933912 -1.2971,0 -2.49043,0.441014 -1.19333,0.415072 -2.04942,1.16739 l -0.83014,-1.374926 q 1.03768,-0.882028 2.49043,-1.348984 1.45275,-0.492898 3.06116,-0.492898 z m -0.64855,12.426218 q 1.55652,0 2.67202,-0.700434 1.11551,-0.7263759 1.66029,-2.0753599 v -2.231012 h -4.28043 q -3.50217,0 -3.50217,2.438548 0,1.193332 0.90797,1.8937659 0.90797,0.674492 2.54232,0.674492 z" />
            <path
               inkscape:connector-curvature="0"
               id="path5014"
               d="m 266.85935,0.12971 q -1.66029,0 -3.19087,-0.46695599 -1.50463,-0.49289799 -2.36072,-1.21927401 l 0.83015,-1.4527519 q 0.85608,0.674492 2.15318,1.1155059 1.2971,0.415072 2.69797,0.415072 1.86782,0 2.74985,-0.570724 0.90797,-0.5966659 0.90797,-1.6602879 0,-0.752318 -0.4929,-1.16739 -0.49289,-0.441014 -1.24521,-0.64855 -0.75232,-0.233478 -1.99754,-0.441014 -1.66028,-0.311304 -2.67202,-0.622608 -1.01174,-0.3372459 -1.73812,-1.1155059 -0.70043,-0.77826 -0.70043,-2.153186 0,-1.7121722 1.42681,-2.8017362 1.42681,-1.089564 3.96913,-1.089564 1.32304,0 2.64608,0.363188 1.32304,0.337246 2.17913,0.90797 l -0.8042,1.478694 q -1.68623,-1.16739 -4.02101,-1.16739 -1.76406,0 -2.67203,0.622608 -0.88203,0.622608 -0.88203,1.6343462 0,0.77826 0.4929,1.245216 0.51884,0.466956 1.27116,0.700434 0.75232,0.207536 2.07536,0.441014 1.63434,0.311304 2.62014,0.622608 0.9858,0.3113039 1.68623,1.0636219 0.70043,0.752318 0.70043,2.07536 0,1.7899979 -1.50463,2.85361992 Q 269.50543,0.12971 266.85935,0.12971 Z" />
          </g>
        </g>
      </g>
      <g
         id="g1252"
         transform="matrix(0.03527778,0,0,-0.03527778,-123.66926,1312.4511)">
        <path
           d="m 4214.25,30180.8 c 49.54,0 89.84,-26.3 129.46,-52.2 22.45,-14.7 44.65,-29.2 65.34,-36 22.27,-7.2 49.79,-8.7 77.2,-10.1 46.93,-2.6 93.68,-5.1 132.19,-33.1 38.95,-28.3 55.82,-72.3 72.65,-116.2 9.86,-25.8 19.73,-51.5 32.96,-69.7 h 0.12 c 13.23,-18.2 34.21,-35.1 55.29,-52 36.8,-29.7 73.92,-59.6 88.93,-105.8 14.41,-44.4 2.53,-89 -9.51,-134.2 -7.16,-26.9 -14.39,-54 -14.39,-78.4 0,-24.3 7.23,-51.4 14.39,-78.3 12.04,-45.2 23.92,-89.8 9.51,-134.2 -15.01,-46.2 -52.14,-76.2 -88.94,-105.8 -21.08,-17 -42.05,-33.9 -55.28,-52 h -0.12 c -13.23,-18.2 -23.1,-43.9 -32.96,-69.7 -16.83,-43.9 -33.71,-87.9 -72.65,-116.2 -38.5,-28 -85.26,-30.5 -132.18,-33.1 -27.42,-1.4 -54.94,-2.9 -77.21,-10.2 -20.69,-6.7 -42.9,-21.2 -65.35,-35.9 -39.61,-25.9 -79.93,-52.3 -129.45,-52.3 -49.53,0 -89.84,26.4 -129.45,52.3 -22.46,14.7 -44.67,29.2 -65.37,35.9 -22.26,7.3 -49.78,8.8 -77.2,10.2 -46.93,2.6 -93.68,5.1 -132.18,33.1 -38.95,28.4 -55.82,72.3 -72.65,116.2 -9.86,25.8 -19.73,51.5 -32.95,69.7 -13.07,17.9 -34.19,34.9 -55.41,52 -36.8,29.7 -73.93,59.5 -88.93,105.8 -14.42,44.4 -2.54,89 9.5,134.2 7.15,26.9 14.38,54 14.38,78.3 0,24.4 -7.23,51.5 -14.38,78.4 -12.04,45.2 -23.92,89.8 -9.5,134.2 15,46.3 52.13,76.2 88.94,105.8 21.22,17.1 42.34,34.1 55.4,52 13.23,18.2 23.1,43.9 32.96,69.7 16.82,43.9 33.71,87.9 72.64,116.2 38.49,28 85.26,30.5 132.2,33.1 27.41,1.4 54.94,2.9 77.19,10.1 20.69,6.8 42.9,21.3 65.35,36 39.62,25.9 79.93,52.2 129.46,52.2"
           style="fill:#061950;fill-opacity:1;fill-rule:evenodd;stroke:none"
           id="path64"
           inkscape:connector-curvature="0" />
        <path
           d="m 4209.44,30105 c 40.73,0 75.59,-22.8 109.82,-45.2 21.3,-13.9 42.35,-27.7 63.13,-34.4 22.13,-7.2 48.22,-8.6 74.22,-10 40.57,-2.2 80.99,-4.4 112.47,-27.3 31.86,-23.2 46.46,-61.3 61.01,-99.2 9.33,-24.3 18.64,-48.6 31.97,-66.9 13.14,-18.1 33.11,-34.2 53.19,-50.3 l 9.62,-7.8 h -40.85 c -15.98,13.2 -31.09,27 -42.72,42.9 -15.55,21.4 -25.42,47.1 -35.3,72.9 -13.21,34.5 -26.46,69 -52.04,87.6 -25.25,18.4 -61.89,20.4 -98.66,22.4 -27.77,1.4 -55.63,3 -80.87,11.1 -24.13,7.9 -46.57,22.6 -69.28,37.4 -31.03,20.3 -62.61,41 -95.71,41 -33.08,0 -64.66,-20.7 -95.69,-41 -22.7,-14.8 -45.16,-29.5 -69.28,-37.3 -25.24,-8.2 -53.09,-9.7 -80.86,-11.2 -36.77,-2 -73.42,-4 -98.68,-22.4 -25.57,-18.6 -38.82,-53.1 -52.02,-87.6 -9.88,-25.7 -19.75,-51.5 -35.31,-72.8 -11.64,-16 -26.75,-29.8 -42.72,-43 h -40.86 l 9.62,7.8 c 20.09,16.1 40.06,32.2 53.2,50.3 13.34,18.3 22.66,42.6 31.97,66.9 14.55,38 29.15,76 61,99.2 31.49,22.9 71.91,25.1 112.49,27.3 25.99,1.4 52.09,2.8 74.21,10 20.77,6.7 41.84,20.5 63.13,34.4 34.23,22.4 69.09,45.2 109.8,45.2 z m -474.56,-882.6 c 15.97,-13.2 31.08,-27 42.72,-43 15.56,-21.3 25.42,-47.1 35.29,-72.8 13.22,-34.5 26.47,-69 52.04,-87.6 25.26,-18.4 61.91,-20.4 98.68,-22.4 27.77,-1.5 55.62,-3 80.86,-11.2 24.12,-7.8 46.58,-22.5 69.28,-37.3 31.03,-20.3 62.61,-41 95.69,-41 33.09,0 64.67,20.7 95.7,41 22.72,14.8 45.17,29.5 69.28,37.3 25.24,8.2 53.1,9.7 80.87,11.2 36.77,2 73.42,4 98.67,22.4 25.57,18.6 38.83,53.1 52.04,87.6 9.88,25.7 19.74,51.5 35.3,72.8 11.64,16 26.75,29.8 42.72,43 h 40.86 l -9.63,-7.8 c -20.08,-16.1 -40.05,-32.2 -53.19,-50.3 -13.33,-18.3 -22.65,-42.6 -31.97,-66.9 -14.55,-38 -29.16,-76 -61.01,-99.2 -31.48,-22.9 -71.9,-25.1 -112.48,-27.3 -26,-1.4 -52.1,-2.8 -74.22,-10 -20.77,-6.7 -41.83,-20.5 -63.12,-34.4 -34.24,-22.4 -69.1,-45.2 -109.82,-45.2 -40.72,0 -75.57,22.8 -109.8,45.2 -21.29,13.9 -42.35,27.7 -63.13,34.4 -22.12,7.2 -48.22,8.6 -74.21,10 -40.58,2.2 -81,4.4 -112.49,27.3 -31.85,23.2 -46.45,61.3 -61.01,99.2 -9.31,24.3 -18.63,48.6 -31.96,66.9 -13.14,18.1 -33.11,34.2 -53.19,50.3 -3.21,2.6 -6.43,5.2 -9.63,7.8"
           style="fill:#c5a15b;fill-opacity:1;fill-rule:nonzero;stroke:none"
           id="path66"
           inkscape:connector-curvature="0" />
        <path
           d="m 4316.2,29495.1 h 70.7 v -135.7 c -18.15,-13.7 -39.17,-24.2 -63.06,-31.5 -23.89,-7.4 -47.93,-11 -72.13,-11 -34.72,0 -65.94,7.4 -93.64,22.2 -27.71,14.8 -49.45,35.3 -65.21,61.6 -15.77,26.3 -23.65,56 -23.65,89.1 0,33.1 7.88,62.8 23.65,89.1 15.76,26.3 37.66,46.8 65.68,61.6 28.03,14.8 59.56,22.2 94.6,22.2 29.3,0 55.89,-4.9 79.78,-14.8 23.88,-9.8 43.95,-24.2 60.19,-43 l -49.68,-45.8 c -23.89,25.1 -52.71,37.7 -86.47,37.7 -21.34,0 -40.29,-4.4 -56.85,-13.4 -16.56,-8.9 -29.46,-21.5 -38.7,-37.7 -9.23,-16.2 -13.86,-34.9 -13.86,-55.9 0,-20.7 4.63,-39.2 13.86,-55.4 9.24,-16.3 22.05,-28.9 38.46,-38 16.4,-9.1 35.11,-13.6 56.13,-13.6 22.3,0 42.36,4.8 60.2,14.3"
           style="fill:#c5a15b;fill-opacity:1;fill-rule:nonzero;stroke:none"
           id="path68"
           inkscape:connector-curvature="0" />
        <path
           d="m 4245.75,29184.2 c -59.23,0 -113.32,12.9 -160.53,39.5 -48.08,26.6 -85.86,62.6 -112.47,109.9 -27.47,46.3 -41.21,98.7 -41.21,156.2 0,57.5 13.74,109.9 41.21,157.1 26.61,46.4 64.39,82.4 112.47,109 48.07,26.7 102.16,39.5 161.39,39.5 44.65,0 85.85,-7.7 123.62,-22.3 37.78,-14.6 69.54,-36.9 96.16,-65.2 l -40.35,-40.4 c -47.22,47.2 -106.45,71.3 -177.71,71.3 -47.22,0 -91.01,-11.2 -129.63,-32.7 -38.64,-21.4 -69.54,-51.5 -91,-89.2 -22.32,-37.8 -33.49,-79.9 -33.49,-127.1 0,-47.2 11.17,-89.3 33.49,-127 21.46,-37.8 52.36,-67.9 91,-89.3 38.62,-21.5 82.41,-32.7 129.63,-32.7 72.12,0 131.35,24.1 177.71,72.2 l 40.35,-40.4 c -26.62,-28.3 -58.38,-50.6 -96.16,-65.2 -38.63,-15.5 -79.83,-23.2 -124.48,-23.2"
           style="fill:#c5a15b;fill-opacity:1;fill-rule:nonzero;stroke:none"
           id="path70"
           inkscape:connector-curvature="0" />
        <path
           d="m 4805.9,29549.6 -33.93,40.8 -33.95,-40.8 33.95,-40.8 z m -33.93,-153.7 33.93,40.8 -33.93,40.8 -33.95,-40.8 z m -56.58,-68 43.63,52.4 -33.94,40.8 -44.85,-53.9 -12.91,15.6 44.86,53.9 -34,40.9 -44.77,-53.8 -12.97,15.5 42.65,51.3 h -0.66 l 2.54,2.5 -2.54,2.6 h 0.66 l -42.65,51.3 12.97,15.5 44.77,-53.8 34,40.9 -44.86,53.9 12.91,15.6 44.85,-53.9 33.94,40.8 -44.93,54 12.94,15.6 44.92,-54 69.31,84.3 v -31.6 l -56.34,-68.3 c 15.63,-18.8 31.21,-37.7 46.91,-56.4 -15.02,-17.9 -29.93,-35.9 -44.87,-53.9 h 0.24 l -2.17,-2.6 2.17,-2.5 h -0.24 c 14.94,-18 29.85,-36 44.87,-53.9 -15.7,-18.7 -31.28,-37.6 -46.91,-56.4 l 56.34,-68.3 v -31.6 l -69.31,84.3 -44.92,-54 -12.94,15.6 z m -22.11,167.8 h 0.04 l -1.49,-1.7 -0.66,-0.9 0.66,-0.8 1.49,-1.7 h -0.04 l 31.85,-38.3 31.85,38.3 h -0.23 l 2.16,2.5 -2.16,2.6 h 0.23 l -31.85,38.3"
           style="fill:#c5a15b;fill-opacity:1;fill-rule:nonzero;stroke:none"
           id="path72"
           inkscape:connector-curvature="0" />
        <path
           d="m 3626.96,29549.6 33.94,40.8 33.94,-40.8 -33.94,-40.8 z m 33.94,-153.7 -33.94,40.8 33.94,40.8 33.94,-40.8 z m 56.58,-68 -43.64,52.4 33.95,40.8 44.84,-53.9 12.92,15.6 -44.86,53.9 33.99,40.9 44.77,-53.8 12.98,15.5 -42.66,51.3 h 0.66 l -2.54,2.5 2.54,2.6 h -0.66 l 42.66,51.3 -12.98,15.5 -44.77,-53.8 -33.99,40.9 44.86,53.9 -12.92,15.6 -44.84,-53.9 -33.95,40.8 44.93,54 -12.93,15.6 -44.93,-54 -69.3,84.3 v -31.6 l 56.34,-68.3 c -15.63,-18.8 -31.21,-37.7 -46.92,-56.4 15.02,-17.9 29.93,-35.9 44.87,-53.9 h -0.23 l 2.17,-2.6 -2.17,-2.5 h 0.23 c -14.94,-18 -29.85,-36 -44.87,-53.9 15.71,-18.7 31.29,-37.6 46.92,-56.4 l -56.34,-68.3 v -31.6 l 69.3,84.3 44.93,-54 12.93,15.6 z m 22.11,167.8 h -0.05 l 1.5,-1.7 0.66,-0.9 -0.66,-0.8 -1.5,-1.7 h 0.05 l -31.86,-38.3 -31.84,38.3 h 0.23 l -2.17,2.5 2.17,2.6 h -0.23 l 31.84,38.3"
           style="fill:#c5a15b;fill-opacity:1;fill-rule:nonzero;stroke:none"
           id="path74"
           inkscape:connector-curvature="0" />
      </g>
    </g>
  </g>
</svg>
