<?xml version="1.0" encoding="UTF-8" standalone="no"?>
<!-- Created with Inkscape (http://www.inkscape.org/) -->

<svg
   xmlns:dc="http://purl.org/dc/elements/1.1/"
   xmlns:cc="http://creativecommons.org/ns#"
   xmlns:rdf="http://www.w3.org/1999/02/22-rdf-syntax-ns#"
   xmlns:svg="http://www.w3.org/2000/svg"
   xmlns="http://www.w3.org/2000/svg"
   xmlns:sodipodi="http://sodipodi.sourceforge.net/DTD/sodipodi-0.dtd"
   xmlns:inkscape="http://www.inkscape.org/namespaces/inkscape"
   width="60mm"
   height="70mm"
   viewBox="0 0 60 70"
   version="1.1"
   id="svg5872"
   inkscape:version="0.92.3 (2405546, 2018-03-11)"
   sodipodi:docname="iso_1.svg">
  <defs
     id="defs5866" />
  <sodipodi:namedview
     id="base"
     pagecolor="#ffffff"
     bordercolor="#666666"
     borderopacity="1.0"
     inkscape:pageopacity="0.0"
     inkscape:pageshadow="2"
     inkscape:zoom="0.7"
     inkscape:cx="4.2857143"
     inkscape:cy="217.14286"
     inkscape:document-units="mm"
     inkscape:current-layer="layer1"
     showgrid="false"
     inkscape:window-width="1920"
     inkscape:window-height="1172"
     inkscape:window-x="1366"
     inkscape:window-y="0"
     inkscape:window-maximized="1" />
  <metadata
     id="metadata5869">
    <rdf:RDF>
      <cc:Work
         rdf:about="">
        <dc:format>image/svg+xml</dc:format>
        <dc:type
           rdf:resource="http://purl.org/dc/dcmitype/StillImage" />
        <dc:title></dc:title>
      </cc:Work>
    </rdf:RDF>
  </metadata>
  <g
     inkscape:label="Capa 1"
     inkscape:groupmode="layer"
     id="layer1"
     transform="translate(0,-227)">
    <g
       id="g6474"
       transform="translate(-48.619047,75.794145)">
      <path
         inkscape:connector-curvature="0"
         id="path328"
         style="fill:#061950;fill-opacity:1;fill-rule:nonzero;stroke:none;stroke-width:0.03527778"
         d="m 107.84298,218.37037 v 1.524 h -8.895642 v -12.25903 h 8.650462 v 1.524 h -6.89927 v 3.76414 h 6.14644 v 1.48872 h -6.14644 v 3.95817" />
      <path
         inkscape:connector-curvature="0"
         id="path330"
         style="fill:#061950;fill-opacity:1;fill-rule:nonzero;stroke:none;stroke-width:0.03527778"
         d="m 91.452573,209.15934 h -4.202641 v -1.524 h 10.138833 v 1.524 h -4.202642 v 10.73503 h -1.73355" />
      <path
         inkscape:connector-curvature="0"
         id="path332"
         style="fill:#061950;fill-opacity:1;fill-rule:nonzero;stroke:none;stroke-width:0.03527778"
         d="m 81.191328,214.67679 c 1.109133,0 1.955445,-0.23989 2.538941,-0.71967 0.583494,-0.47625 0.875594,-1.16064 0.875594,-2.04964 0,-0.88547 -0.2921,-1.56633 -0.875594,-2.03906 -0.583496,-0.47272 -1.429808,-0.70908 -2.538941,-0.70908 h -2.97674 v 5.51745 z m 3.4671,5.21758 -2.644071,-3.76414 c -0.327025,0.0212 -0.583846,0.0353 -0.770467,0.0353 h -3.029302 v 3.72886 h -1.751542 v -12.25903 h 4.780844 c 1.5875,0 2.836688,0.381 3.747206,1.13948 0.910873,0.75847 1.365957,1.80269 1.365957,3.13266 0,0.94898 -0.23354,1.75331 -0.700617,2.42006 -0.466725,0.66322 -1.132417,1.14653 -1.996017,1.45344 l 2.906888,4.11339" />
      <path
         inkscape:connector-curvature="0"
         id="path334"
         style="fill:#061950;fill-opacity:1;fill-rule:nonzero;stroke:none;stroke-width:0.03527778"
         d="m 68.337869,218.4762 c 0.899231,0 1.707444,-0.20461 2.425347,-0.61383 0.718256,-0.40922 1.284464,-0.97014 1.698625,-1.68981 0.414514,-0.71614 0.621947,-1.52047 0.621947,-2.40594 0,-0.889 -0.207433,-1.68981 -0.621947,-2.40947 -0.414161,-0.71614 -0.980369,-1.28059 -1.698625,-1.68981 -0.717903,-0.40922 -1.526116,-0.61383 -2.425347,-0.61383 -0.898878,0 -1.713089,0.20461 -2.442633,0.61383 -0.729897,0.40922 -1.30175,0.97367 -1.715911,1.68981 -0.414514,0.71966 -0.621595,1.52047 -0.621595,2.40947 0,0.88547 0.207081,1.6898 0.621595,2.40594 0.414161,0.71967 0.986014,1.28059 1.715911,1.68981 0.729544,0.40922 1.543755,0.61383 2.442633,0.61383 z m 0,1.55928 c -1.237192,0 -2.352322,-0.27164 -3.344333,-0.81492 -0.992364,-0.54327 -1.77165,-1.29469 -2.337859,-2.25072 -0.566208,-0.95603 -0.849136,-2.02494 -0.849136,-3.20322 0,-1.18181 0.282928,-2.2472 0.849136,-3.20675 0.566209,-0.95603 1.345495,-1.70745 2.337859,-2.25072 0.992011,-0.53975 2.107141,-0.81139 3.344333,-0.81139 1.225903,0 2.335036,0.27164 3.3274,0.81139 0.992364,0.54327 1.768475,1.29116 2.329039,2.24366 0.560211,0.9525 0.840316,2.02142 0.840316,3.21381 0,1.18886 -0.280105,2.2613 -0.840316,3.2138 -0.560564,0.94898 -1.336675,1.69687 -2.329039,2.24014 -0.992364,0.54328 -2.101497,0.81492 -3.3274,0.81492" />
      <path
         inkscape:connector-curvature="0"
         id="path336"
         style="fill:#061950;fill-opacity:1;fill-rule:nonzero;stroke:none;stroke-width:0.03527778"
         d="m 56.588252,220.03548 c -1.225903,0 -2.331861,-0.27164 -3.318228,-0.81492 -0.986719,-0.54327 -1.760008,-1.29116 -2.320219,-2.24014 -0.560564,-0.9525 -0.840669,-2.02494 -0.840669,-3.2138 0,-1.19239 0.280105,-2.26131 0.840669,-3.21381 0.560211,-0.9525 1.336322,-1.70039 2.328686,-2.24366 0.992364,-0.53975 2.101497,-0.81139 3.327047,-0.81139 0.957439,0 1.833033,0.15875 2.626783,0.47978 0.793751,0.32102 1.471084,0.79727 2.031295,1.42875 l -1.138414,1.10066 c -0.922161,-0.96661 -2.071864,-1.45344 -3.449461,-1.45344 -0.910519,0 -1.73355,0.20461 -2.469092,0.61383 -0.735541,0.40922 -1.310216,0.97367 -1.72473,1.68981 -0.414514,0.71966 -0.621947,1.52047 -0.621947,2.40947 0,0.88547 0.207433,1.6898 0.621947,2.40594 0.414514,0.71967 0.989189,1.28059 1.72473,1.68981 0.735542,0.40922 1.558573,0.61383 2.469092,0.61383 1.365956,0 2.515658,-0.49036 3.449461,-1.47108 l 1.138414,1.10419 c -0.560211,0.62795 -1.240366,1.10773 -2.040114,1.43581 -0.799394,0.32455 -1.678164,0.49036 -2.63525,0.49036" />
      <path
         inkscape:connector-curvature="0"
         id="path338"
         style="fill:#061950;fill-opacity:1;fill-rule:nonzero;stroke:none;stroke-width:0.03527778"
         d="m 107.84298,189.37909 v 14.02292 h -2.66382 l -6.990647,-8.51253 v 8.51253 h -3.204985 v -14.02292 h 2.684285 l 6.970537,8.51253 v -8.51253" />
      <path
         inkscape:connector-curvature="0"
         id="path340"
         style="fill:#061950;fill-opacity:1;fill-rule:nonzero;stroke:none;stroke-width:0.03527778"
         d="m 87.853182,197.93395 -2.223559,-5.36927 -2.223558,5.36927 z m 1.021291,2.46239 h -6.509808 l -1.241777,3.00567 h -3.324931 l 6.249458,-14.02292 h 3.204633 l 6.269215,14.02292 h -3.40501" />
      <path
         inkscape:connector-curvature="0"
         id="path342"
         style="fill:#061950;fill-opacity:1;fill-rule:nonzero;stroke:none;stroke-width:0.03527778"
         d="m 73.791813,194.46968 c 0,-0.79023 -0.253647,-1.39348 -0.761294,-1.81328 -0.507295,-0.42334 -1.248481,-0.63147 -2.223206,-0.63147 h -2.644069 v 4.88597 h 2.644069 c 0.974725,0 1.715911,-0.21167 2.223206,-0.63853 0.507647,-0.43039 0.761294,-1.03011 0.761294,-1.80269 z m 0.05997,8.93233 -2.703689,-3.90525 h -2.984853 v 3.90525 h -3.24485 v -14.02292 h 6.069189 c 1.241778,0 2.320219,0.20814 3.234972,0.62089 0.914753,0.41628 1.618898,1.00189 2.113139,1.76389 0.493888,0.762 0.741186,1.66158 0.741186,2.70581 0,1.04069 -0.250473,1.93675 -0.751065,2.69169 -0.500944,0.75494 -1.212143,1.3335 -2.133246,1.73214 l 3.144661,4.5085" />
      <path
         inkscape:connector-curvature="0"
         id="path344"
         style="fill:#061950;fill-opacity:1;fill-rule:nonzero;stroke:none;stroke-width:0.03527778"
         d="m 59.750905,196.17006 h 2.964392 v 5.69031 c -0.761295,0.5715 -1.642533,1.01247 -2.64407,1.31939 -1.001536,0.30691 -2.009775,0.46214 -3.024717,0.46214 -1.455208,0 -2.764013,-0.31045 -3.925711,-0.93134 -1.161697,-0.62089 -2.073274,-1.48166 -2.734027,-2.58233 -0.661106,-1.10419 -0.991658,-2.3495 -0.991658,-3.73592 0,-1.38994 0.330552,-2.63525 0.991658,-3.73591 0.660753,-1.1042 1.579033,-1.96497 2.754136,-2.58586 1.175103,-0.62089 2.496961,-0.93134 3.965927,-0.93134 1.228725,0 2.343504,0.20814 3.34504,0.62089 1.001536,0.41628 1.842558,1.016 2.523772,1.8027 l -2.083153,1.92264 c -1.001536,-1.05481 -2.210153,-1.58045 -3.625497,-1.58045 -0.894645,0 -1.6891,0.18697 -2.38372,0.56092 -0.694266,0.37394 -1.235075,0.89958 -1.622072,1.58044 -0.38735,0.68086 -0.581025,1.46403 -0.581025,2.34597 0,0.86784 0.193675,1.64042 0.581025,2.32128 0.386997,0.68086 0.924631,1.21356 1.612194,1.59456 0.687564,0.37747 1.472142,0.56797 2.353734,0.56797 0.934508,0 1.775883,-0.19756 2.523772,-0.59972" />
      <path
         inkscape:connector-curvature="0"
         id="path346"
         style="fill:#061950;fill-opacity:1;fill-rule:evenodd;stroke:none;stroke-width:0.03527778"
         d="m 79.127223,152.37623 c 1.087615,0 1.972734,0.57856 2.842684,1.14653 0.492831,0.32103 0.980371,0.64205 1.434748,0.79022 0.48895,0.15875 1.092906,0.1905 1.694743,0.22225 1.030465,0.0564 2.057048,0.10936 2.902657,0.72672 0.855133,0.62089 1.22555,1.5875 1.59526,2.55059 0.216606,0.56444 0.433213,1.12889 0.723548,1.52752 h 0.0028 c 0.290335,0.40217 0.751062,0.77259 1.213908,1.14653 0.808212,0.64911 1.623129,1.30528 1.952625,2.32128 0.316442,0.97367 0.05574,1.95439 -0.208846,2.94569 -0.156985,0.58914 -0.315735,1.18534 -0.315735,1.72156 0,0.53269 0.15875,1.12889 0.315735,1.71803 0.264583,0.99483 0.525288,1.97203 0.208846,2.94922 -0.329496,1.016 -1.144764,1.67217 -1.952979,2.32128 -0.462844,0.37394 -0.923219,0.74436 -1.213554,1.143 h -0.0028 c -0.290335,0.39864 -0.506942,0.96308 -0.723548,1.53105 -0.36971,0.96309 -0.740127,1.9297 -1.59526,2.55059 -0.845257,0.61383 -1.87184,0.67027 -2.902302,0.72672 -0.602192,0.0318 -1.206148,0.0635 -1.695098,0.22225 -0.454377,0.14817 -0.942269,0.46567 -1.4351,0.79022 -0.869598,0.56797 -1.755069,1.14653 -2.842332,1.14653 -1.08726,0 -1.972379,-0.57856 -2.842329,-1.14653 -0.493183,-0.32455 -0.980722,-0.64205 -1.4351,-0.79022 -0.48895,-0.15875 -1.093258,-0.1905 -1.695097,-0.22225 -1.030464,-0.0564 -2.056695,-0.11289 -2.902303,-0.72672 -0.855486,-0.62442 -1.225903,-1.5875 -1.595261,-2.55059 -0.216606,-0.56797 -0.433211,-1.13241 -0.723547,-1.53105 -0.286809,-0.39511 -0.750711,-0.76553 -1.216378,-1.143 -0.808214,-0.64911 -1.623483,-1.30528 -1.952978,-2.32128 -0.316441,-0.97719 -0.05574,-1.95439 0.208492,-2.94922 0.156986,-0.58914 0.316089,-1.18534 0.316089,-1.71803 0,-0.53622 -0.159103,-1.13242 -0.316089,-1.72156 -0.264231,-0.9913 -0.524933,-1.97202 -0.208492,-2.94569 0.329495,-1.016 1.144764,-1.67217 1.952978,-2.32481 0.466019,-0.37394 0.929569,-0.74788 1.216378,-1.143 0.290336,-0.39863 0.506941,-0.96308 0.7239,-1.52752 0.369005,-0.96309 0.739775,-1.9297 1.594908,-2.55059 0.844903,-0.61736 1.872192,-0.67027 2.902655,-0.72672 0.601839,-0.0318 1.206148,-0.067 1.694745,-0.22225 0.454378,-0.14817 0.941917,-0.46919 1.4351,-0.79022 0.869596,-0.56797 1.754717,-1.14653 2.842329,-1.14653" />
      <path
         inkscape:connector-curvature="0"
         id="path348"
         style="fill:#c5a15b;fill-opacity:1;fill-rule:nonzero;stroke:none;stroke-width:0.03527778"
         d="m 79.127223,154.04134 c 0.89394,0 1.659467,0.50095 2.411238,0.99131 0.467429,0.30691 0.929921,0.60678 1.386062,0.75494 0.485775,0.15875 1.058688,0.1905 1.629482,0.21872 0.891116,0.0494 1.778352,0.0988 2.469798,0.59973 0.699204,0.51152 1.019879,1.34408 1.339495,2.18016 0.204613,0.5327 0.409223,1.06539 0.701675,1.46756 0.288573,0.39864 0.727075,0.75142 1.168048,1.10419 l 0.211315,0.17286 h -0.897115 c -0.35066,-0.2928 -0.682273,-0.59266 -0.938035,-0.94544 -0.341138,-0.46919 -0.558096,-1.03364 -0.775054,-1.59808 -0.289984,-0.75848 -0.581025,-1.51695 -1.142294,-1.92617 -0.554567,-0.40217 -1.359252,-0.4445 -2.166408,-0.49036 -0.609952,-0.0318 -1.221669,-0.0635 -1.775884,-0.24342 -0.529873,-0.17286 -1.02235,-0.49389 -1.520825,-0.82197 -0.681566,-0.4445 -1.375127,-0.89958 -2.101498,-0.89958 -0.726368,0 -1.419929,0.45508 -2.101495,0.89958 -0.498123,0.32808 -0.991659,0.64911 -1.520826,0.82197 -0.554214,0.17992 -1.16593,0.21167 -1.77553,0.24342 -0.807509,0.0459 -1.612195,0.0882 -2.166761,0.49036 -0.561623,0.40922 -0.852311,1.16769 -1.142295,1.92617 -0.216958,0.56444 -0.433564,1.12889 -0.775053,1.59808 -0.255763,0.35278 -0.587375,0.65264 -0.938388,0.94544 h -0.896761 l 0.210961,-0.17286 c 0.440972,-0.35277 0.879827,-0.70555 1.168047,-1.10419 0.292805,-0.40217 0.497769,-0.93486 0.702028,-1.46756 0.319616,-0.83608 0.639938,-1.66864 1.339497,-2.18016 0.691444,-0.50095 1.57868,-0.55034 2.469797,-0.59973 0.570794,-0.0282 1.143705,-0.06 1.62948,-0.21872 0.456141,-0.14816 0.918633,-0.44803 1.386064,-0.75494 0.751769,-0.49036 1.517298,-0.99131 2.411235,-0.99131 z m -10.419996,19.37809 c 0.350661,0.28927 0.682273,0.59266 0.938036,0.94191 0.341489,0.4692 0.558095,1.03364 0.7747,1.60161 0.290337,0.75495 0.581025,1.51342 1.142648,1.92264 0.554566,0.4057 1.359252,0.44803 2.166761,0.49036 0.6096,0.0318 1.221316,0.067 1.77553,0.24695 0.529167,0.16933 1.022703,0.49389 1.520826,0.81844 0.681566,0.44803 1.375127,0.89959 2.101495,0.89959 0.726371,0 1.419932,-0.45156 2.101146,-0.89959 0.498827,-0.32455 0.991659,-0.64911 1.521177,-0.81844 0.553861,-0.17992 1.165932,-0.2152 1.775532,-0.24695 0.807508,-0.0423 1.612193,-0.0847 2.16676,-0.49036 0.561269,-0.40922 0.85231,-1.16769 1.142294,-1.92264 0.216958,-0.56444 0.433564,-1.13241 0.775054,-1.60161 0.255762,-0.34925 0.587375,-0.65264 0.938387,-0.94191 h 0.897115 l -0.211667,0.16933 c -0.440973,0.3563 -0.879475,0.70908 -1.168048,1.10419 -0.292452,0.40217 -0.497062,0.93839 -0.701675,1.47109 -0.319616,0.83255 -0.640291,1.66864 -1.339495,2.17664 -0.691446,0.50447 -1.579034,0.55386 -2.47015,0.59972 -0.570442,0.0317 -1.143707,0.0635 -1.629482,0.21872 -0.455789,0.14817 -0.918281,0.45156 -1.386064,0.75847 -0.751769,0.49036 -1.516944,0.99131 -2.410884,0.99131 -0.894291,0 -1.659466,-0.50095 -2.411235,-0.99131 -0.467431,-0.30691 -0.929923,-0.6103 -1.386064,-0.75847 -0.485775,-0.15522 -1.058686,-0.18697 -1.62948,-0.21872 -0.891117,-0.0459 -1.778353,-0.0953 -2.469797,-0.59972 -0.699559,-0.508 -1.019881,-1.34409 -1.339497,-2.17664 -0.204612,-0.5327 -0.409223,-1.06892 -0.702028,-1.47109 -0.28822,-0.39511 -0.727075,-0.74789 -1.167695,-1.10419 -0.07055,-0.0564 -0.141463,-0.11289 -0.211313,-0.16933" />
      <path
         inkscape:connector-curvature="0"
         id="path350"
         style="fill:#c5a15b;fill-opacity:1;fill-rule:nonzero;stroke:none;stroke-width:0.03527778"
         d="m 81.365598,167.43279 h 1.552575 v 2.97744 c -0.398637,0.30339 -0.86007,0.5327 -1.3843,0.69497 -0.524933,0.15875 -1.052687,0.23989 -1.584325,0.23989 -0.762,0 -1.447445,-0.16228 -2.055987,-0.48683 -0.60819,-0.32456 -1.085498,-0.77611 -1.431573,-1.35467 -0.346427,-0.57503 -0.51929,-1.22766 -0.51929,-1.95439 0,-0.73025 0.172863,-1.37936 0.51929,-1.95791 0.346075,-0.57503 0.82691,-1.02659 1.442156,-1.35467 0.615244,-0.32456 1.307746,-0.48683 2.077154,-0.48683 0.643115,0 1.226963,0.10936 1.751542,0.32455 0.524581,0.21872 0.9652,0.5327 1.321858,0.94545 l -1.090787,1.00541 c -0.524581,-0.55033 -1.157817,-0.8255 -1.89865,-0.8255 -0.468842,0 -0.884767,0.0952 -1.248481,0.29281 -0.363715,0.19403 -0.646994,0.47272 -0.84949,0.82903 -0.2032,0.3563 -0.304446,0.76552 -0.304446,1.22766 0,0.45156 0.101246,0.85725 0.304446,1.21709 0.202496,0.3563 0.484013,0.63147 0.844198,0.83255 0.360185,0.19756 0.771173,0.29986 1.232606,0.29986 0.489302,0 0.930275,-0.10583 1.321504,-0.3175" />
      <path
         inkscape:connector-curvature="0"
         id="path352"
         style="fill:#c5a15b;fill-opacity:1;fill-rule:nonzero;stroke:none;stroke-width:0.03527778"
         d="m 79.819021,174.25904 c -1.300691,0 -2.488141,-0.28223 -3.524956,-0.86784 -1.05551,-0.58561 -1.885243,-1.37583 -2.469443,-2.413 -0.60325,-1.016 -0.904875,-2.16605 -0.904875,-3.429 0,-1.26294 0.301625,-2.413 0.904875,-3.45016 0.5842,-1.01953 1.413933,-1.80975 2.469443,-2.39536 1.055513,-0.58562 2.243315,-0.86784 3.544006,-0.86784 0.980017,0 1.884892,0.16934 2.714273,0.49036 0.829379,0.32103 1.526821,0.81139 2.111021,1.43228 l -0.885825,0.88547 c -1.036812,-1.03364 -2.337504,-1.5628 -3.902075,-1.5628 -1.036812,0 -1.998133,0.24341 -2.84621,0.71614 -0.848432,0.47272 -1.526822,1.13241 -1.998133,1.96144 -0.490009,0.82903 -0.735189,1.75331 -0.735189,2.79047 0,1.03364 0.24518,1.95792 0.735189,2.78695 0.471311,0.83255 1.149701,1.49225 1.998133,1.96144 0.848077,0.47272 1.809398,0.71614 2.84621,0.71614 1.583621,0 2.883958,-0.52564 3.902075,-1.58397 l 0.885825,0.88547 c -0.5842,0.62442 -1.281642,1.11478 -2.111021,1.43581 -0.848431,0.33866 -1.752954,0.508 -2.733323,0.508" />
      <path
         inkscape:connector-curvature="0"
         id="path354"
         style="fill:#c5a15b;fill-opacity:1;fill-rule:nonzero;stroke:none;stroke-width:0.03527778"
         d="m 92.118265,166.23334 -0.745067,-0.89605 -0.745418,0.89605 0.745418,0.89606 z m -0.745067,3.37609 0.745067,-0.89606 -0.745067,-0.89606 -0.745418,0.89606 z m -1.242483,1.49577 0.958146,-1.15358 -0.745421,-0.89606 -0.984602,1.18534 -0.283633,-0.3422 0.984956,-1.18533 -0.746479,-0.89958 -0.982838,1.18533 -0.285046,-0.34219 0.936625,-1.12537 h -0.01447 l 0.05574,-0.0565 -0.05574,-0.0564 h 0.01447 l -0.936625,-1.12536 0.285046,-0.34219 0.982838,1.1818 0.746479,-0.89605 -0.984956,-1.18533 0.283633,-0.3422 0.984602,1.18181 0.745421,-0.89606 -0.986721,-1.18533 0.28434,-0.3422 0.986366,1.18534 1.521532,-1.85209 v 0.69498 l -1.23684,1.4993 c 0.3429,0.41275 0.685094,0.82903 1.03011,1.23825 -0.329845,0.39511 -0.657225,0.79022 -0.985308,1.18533 h 0.0053 l -0.04798,0.0564 0.04798,0.0565 h -0.0053 c 0.328083,0.39512 0.655463,0.79023 0.985308,1.18181 -0.345016,0.41275 -0.68721,0.8255 -1.03011,1.23825 l 1.23684,1.49931 v 0.69497 l -1.521532,-1.85209 -0.986366,1.18534 -0.28434,-0.3422 z m -0.485421,-3.68652 h 0.0011 l -0.03281,0.0388 -0.01447,0.0176 0.01447,0.0176 0.03281,0.0388 h -0.0011 l 0.699204,0.83961 0.699207,-0.83961 h -0.0049 l 0.04763,-0.0564 -0.04763,-0.0564 h 0.0049 l -0.699207,-0.83962" />
      <path
         inkscape:connector-curvature="0"
         id="path356"
         style="fill:#c5a15b;fill-opacity:1;fill-rule:nonzero;stroke:none;stroke-width:0.03527778"
         d="m 66.232139,166.23334 0.745066,-0.89605 0.74542,0.89605 -0.74542,0.89606 z m 0.745066,3.37609 -0.745066,-0.89606 0.745066,-0.89606 0.74542,0.89606 z m 1.242484,1.49577 -0.958145,-1.15358 0.74542,-0.89606 0.984602,1.18534 0.283634,-0.3422 -0.984956,-1.18533 0.746478,-0.89958 0.982839,1.18533 0.285044,-0.34219 -0.936625,-1.12537 h 0.01447 l -0.05574,-0.0565 0.05574,-0.0564 h -0.01447 l 0.936625,-1.12536 -0.285044,-0.34219 -0.982839,1.1818 -0.746478,-0.89605 0.984956,-1.18533 -0.283634,-0.3422 -0.984602,1.18181 -0.74542,-0.89606 0.98672,-1.18533 -0.284339,-0.3422 -0.986367,1.18534 -1.521531,-1.85209 v 0.69498 l 1.236839,1.4993 c -0.3429,0.41275 -0.685094,0.82903 -1.030111,1.23825 0.329847,0.39511 0.657225,0.79022 0.985309,1.18533 h -0.0053 l 0.04763,0.0564 -0.04763,0.0565 h 0.0053 c -0.328084,0.39512 -0.655462,0.79023 -0.985309,1.18181 0.345017,0.41275 0.687211,0.8255 1.030111,1.23825 l -1.236839,1.49931 v 0.69497 l 1.521531,-1.85209 0.986367,1.18534 0.284339,-0.3422 z m 0.485422,-3.68652 h -0.0011 l 0.03281,0.0388 0.01446,0.0176 -0.01446,0.0176 -0.03281,0.0388 h 0.0011 l -0.699206,0.83961 -0.699558,-0.83961 h 0.0053 l -0.04763,-0.0564 0.04763,-0.0564 h -0.0053 l 0.699558,-0.83962" />
    </g>
  </g>
</svg>
