<?xml version="1.0" encoding="UTF-8" standalone="no"?>
<!-- Created with Inkscape (http://www.inkscape.org/) -->

<svg
   xmlns:dc="http://purl.org/dc/elements/1.1/"
   xmlns:cc="http://creativecommons.org/ns#"
   xmlns:rdf="http://www.w3.org/1999/02/22-rdf-syntax-ns#"
   xmlns:svg="http://www.w3.org/2000/svg"
   xmlns="http://www.w3.org/2000/svg"
   xmlns:sodipodi="http://sodipodi.sourceforge.net/DTD/sodipodi-0.dtd"
   xmlns:inkscape="http://www.inkscape.org/namespaces/inkscape"
   width="124mm"
   height="28mm"
   viewBox="0 0 124 28"
   version="1.1"
   id="svg6564"
   inkscape:version="0.92.3 (2405546, 2018-03-11)"
   sodipodi:docname="iso_neg.svg">
  <defs
     id="defs6558" />
  <sodipodi:namedview
     id="base"
     pagecolor="#ffffff"
     bordercolor="#666666"
     borderopacity="1.0"
     inkscape:pageopacity="0.0"
     inkscape:pageshadow="2"
     inkscape:zoom="0.98994949"
     inkscape:cx="-185.32082"
     inkscape:cy="-46.091527"
     inkscape:document-units="mm"
     inkscape:current-layer="layer1"
     showgrid="false"
     inkscape:window-width="1920"
     inkscape:window-height="1172"
     inkscape:window-x="1366"
     inkscape:window-y="0"
     inkscape:window-maximized="1" />
  <metadata
     id="metadata6561">
    <rdf:RDF>
      <cc:Work
         rdf:about="">
        <dc:format>image/svg+xml</dc:format>
        <dc:type
           rdf:resource="http://purl.org/dc/dcmitype/StillImage" />
        <dc:title></dc:title>
      </cc:Work>
    </rdf:RDF>
  </metadata>
  <g
     inkscape:label="Capa 1"
     inkscape:groupmode="layer"
     id="layer1"
     transform="translate(0,-269)">
    <g
       id="g7221"
       transform="translate(-63.592667,177.62872)">
      <g
         transform="matrix(0.35277777,0,0,-0.35277777,66.467709,948.87957)"
         id="g80">
        <g
           id="text84"
           style="font-variant:normal;font-weight:bold;font-size:41.52999878px;font-family:Montserrat;-inkscape-font-specification:Montserrat-Bold;writing-mode:lr-tb;fill:#ffffff;fill-opacity:1;fill-rule:nonzero;stroke:none"
           transform="matrix(1,0,0,-1,77.0773,2387.53)"
           aria-label="GRAN">
          <path
             inkscape:connector-curvature="0"
             id="path7139"
             d="m 23.090679,-14.99233 h 6.14644 v 11.7945201 q -2.36721,1.7857899 -5.48196,2.74097991 -3.11475,0.95518998 -6.27103,0.95518998 -4.526769,0 -8.1398793,-1.91037999 Q 5.7311398,-3.3639299 3.6546399,-6.7693898 1.61967,-10.21638 1.61967,-14.5355 q 0,-4.319119 2.0349699,-7.724579 2.0764999,-3.44699 5.7311398,-5.35737 3.6546403,-1.95191 8.2229393,-1.95191 3.82076,0 6.93551,1.28743 3.11475,1.28743 5.23278,3.7377 l -4.31912,3.98688 q -3.11475,-3.28087 -7.51693,-3.28087 -2.782509,0 -4.942069,1.16284 -2.15956,1.16284 -3.3639303,3.28087 -1.2043699,2.11803 -1.2043699,4.859009 0,2.69945 1.2043699,4.8174803 1.2043703,2.1180299 3.3224003,3.3223999 2.15956,1.16284 4.900539,1.16284 2.9071,0 5.23278,-1.2459 z" />
          <path
             inkscape:connector-curvature="0"
             id="path7141"
             d="m 52.327966,0 -5.60655,-8.0983498 h -0.33224 -5.855729 V 0 h -6.72786 v -29.070999 h 12.583589 q 3.86229,0 6.68633,1.28743 2.86557,1.28743 4.40218,3.65464 1.53661,2.36721 1.53661,5.60655 0,3.239339 -1.57814,5.606549 -1.53661,2.32568 -4.40218,3.5715803 L 59.554186,0 Z m -0.12459,-18.522379 q 0,-2.45027 -1.57814,-3.7377 -1.57814,-1.32896 -4.60983,-1.32896 h -5.481959 v 10.133319 h 5.481959 q 3.03169,0 4.60983,-1.32896 1.57814,-1.32896 1.57814,-3.737699 z" />
          <path
             inkscape:connector-curvature="0"
             id="path7143"
             d="M 83.475464,-6.2294998 H 69.978214 L 67.403354,0 h -6.89398 l 12.95736,-29.070999 h 6.6448 L 93.110423,0 h -7.060099 z m -2.11803,-5.1081902 -4.60983,-11.130039 -4.60983,11.130039 z" />
          <path
             inkscape:connector-curvature="0"
             id="path7145"
             d="M 122.80438,-29.070999 V 0 h -5.52349 L 102.78692,-17.650249 V 0 h -6.644801 v -29.070999 h 5.565021 l 14.45244,17.650249 v -17.650249 z" />
        </g>
        <g
           id="text88"
           style="font-variant:normal;font-weight:500;font-size:41.52999878px;font-family:Montserrat;-inkscape-font-specification:Montserrat-Medium;writing-mode:lr-tb;fill:#ffffff;fill-opacity:1;fill-rule:nonzero;stroke:none"
           transform="matrix(1,0,0,-1,203.3283,2387.53)"
           aria-label="CORTE">
          <path
             inkscape:connector-curvature="0"
             id="path7148"
             d="m 17.359539,0.33223999 q -4.360649,0 -7.8906993,-1.91037999 -3.4885199,-1.9519099 -5.4819598,-5.3158398 -1.99344,-3.4054602 -1.99344,-7.6415202 0,-4.236059 1.99344,-7.599989 1.9934399,-3.40546 5.5234898,-5.31584 3.5300503,-1.95191 7.8906993,-1.95191 3.40546,0 6.2295,1.16284 2.82404,1.12131 4.81748,3.36393 l -2.69945,2.61639 q -3.28087,-3.44699 -8.18141,-3.44699 -3.239339,0 -5.855729,1.45355 -2.6163903,1.45355 -4.1114702,4.02841 -1.45355,2.53333 -1.45355,5.689609 0,3.15628 1.45355,5.7311403 1.4950799,2.5333299 4.1114702,3.9868798 2.61639,1.45355 5.855729,1.45355 4.85901,0 8.18141,-3.4885199 l 2.69945,2.6163899 q -1.99344,2.24262 -4.85901,3.40545992 -2.82404,1.16283997 -6.2295,1.16283997 z" />
          <path
             inkscape:connector-curvature="0"
             id="path7150"
             d="m 45.22592,0.33223999 q -4.40218,0 -7.93223,-1.91037999 -3.530049,-1.9519099 -5.565019,-5.3573698 -1.99344,-3.4054602 -1.99344,-7.5999902 0,-4.194529 1.99344,-7.599989 2.03497,-3.40546 5.565019,-5.31584 3.53005,-1.95191 7.93223,-1.95191 4.36065,0 7.8907,1.95191 3.53005,1.91038 5.52349,5.31584 1.99344,3.36393 1.99344,7.599989 0,4.23606 -1.99344,7.6415202 -1.99344,3.3639299 -5.52349,5.3158398 -3.53005,1.91037999 -7.8907,1.91037999 z m 0,-3.69616989 q 3.19781,0 5.73114,-1.45355 2.57486,-1.4535499 4.02841,-3.9868798 1.49508,-2.5748603 1.49508,-5.7311403 0,-3.156279 -1.49508,-5.689609 -1.45355,-2.57486 -4.02841,-4.02841 -2.53333,-1.45355 -5.73114,-1.45355 -3.19781,0 -5.8142,1.45355 -2.574859,1.45355 -4.069939,4.02841 -1.45355,2.53333 -1.45355,5.689609 0,3.15628 1.45355,5.7311403 1.49508,2.5333299 4.069939,3.9868798 2.61639,1.45355 5.8142,1.45355 z" />
          <path
             inkscape:connector-curvature="0"
             id="path7152"
             d="m 83.931833,0 -6.27103,-8.9289497 q -1.16284,0.08306 -1.82732,0.08306 h -7.18469 V 0 h -4.153 v -29.070999 h 11.33769 q 5.64808,0 8.88742,2.69945 3.239339,2.69945 3.239339,7.43387 0,3.363929 -1.661199,5.731139 -1.6612,2.36721 -4.73442,3.4469903 L 88.458602,0 Z m -8.22294,-12.37594 q 3.94535,0 6.02185,-1.70273 2.0765,-1.70273 2.0765,-4.859009 0,-3.15628 -2.0765,-4.81748 -2.0765,-1.70273 -6.02185,-1.70273 h -7.0601 v 13.081949 z" />
          <path
             inkscape:connector-curvature="0"
             id="path7154"
             d="m 100.04541,-25.457889 h -9.967196 v -3.61311 h 24.045866 v 3.61311 h -9.9672 V 0 h -4.11147 z" />
          <path
             inkscape:connector-curvature="0"
             id="path7156"
             d="M 138.91726,-3.6131099 V 0 h -21.09724 v -29.070999 h 20.51582 v 3.61311 h -16.36282 v 8.928949 h 14.57703 v 3.53005 h -14.57703 v 9.3857801 z" />
        </g>
        <g
           id="text92"
           style="font-variant:normal;font-weight:normal;font-size:14.71500015px;font-family:Montserrat;-inkscape-font-specification:Montserrat-Regular;writing-mode:lr-tb;fill:#ffffff;fill-opacity:1;fill-rule:nonzero;stroke:none"
           transform="matrix(1,0,0,-1,136.8592,2366.2788)"
           aria-label="carnes selectas">
          <path
             inkscape:connector-curvature="0"
             id="path7159"
             d="m 4.664655,0.073575 q -1.14777,0 -2.0601,-0.50031 Q 1.70694,-0.92704501 1.191915,-1.82466 0.67689001,-2.73699 0.67689001,-3.870045 q 0,-1.1330551 0.51502499,-2.0306701 0.515025,-0.897615 1.41264,-1.397925 0.91233,-0.50031 2.0601,-0.50031 1.0006201,0 1.7805151,0.397305 0.79461,0.38259 1.250775,1.133055 l -0.779895,0.52974 q -0.38259,-0.573885 -0.97119,-0.85347 -0.5886,-0.2943 -1.2802051,-0.2943 -0.838755,0 -1.515645,0.38259 -0.662175,0.367875 -1.044765,1.05948 -0.367875,0.6916051 -0.367875,1.5745051 0,0.897615 0.367875,1.58922 0.38259,0.67689 1.044765,1.05948 0.67689,0.36787499 1.515645,0.36787499 0.6916051,0 1.2802051,-0.27958499 0.5886,-0.279585 0.97119,-0.85347 l 0.779895,0.52974 q -0.456165,0.75046499 -1.250775,1.14777 -0.79461,0.38259 -1.7805151,0.38259 z" />
          <path
             inkscape:connector-curvature="0"
             id="path7161"
             d="m 15.475677,-7.7989501 q 1.515645,0 2.32497,0.76518 0.809325,0.750465 0.809325,2.2366801 V 0 h -1.00062 v -1.20663 q -0.35316,0.60331499 -1.044765,0.94176 -0.67689,0.338445 -1.61865,0.338445 -1.29492,0 -2.0601,-0.61803001 -0.76518,-0.61802999 -0.76518,-1.63336499 0,-0.985905 0.70632,-1.58922 0.721035,-0.603315 2.280825,-0.603315 h 2.457405 v -0.4708801 q 0,-1.00062 -0.55917,-1.515645 -0.55917,-0.52974 -1.633365,-0.52974 -0.73575,0 -1.41264,0.250155 -0.67689,0.23544 -1.162485,0.662175 l -0.47088,-0.779895 q 0.5886,-0.50031 1.41264,-0.76518 0.82404,-0.279585 1.73637,-0.279585 z m -0.367875,7.04848509 q 0.8829,0 1.515645,-0.39730499 0.632745,-0.41202 0.94176,-1.1772 v -1.26549 h -2.427975 q -1.986525,0 -1.986525,1.38321 0,0.67689 0.515025,1.074195 0.515025,0.38258999 1.44207,0.38258999 z" />
          <path
             inkscape:connector-curvature="0"
             id="path7163"
             d="m 25.478109,-6.2244451 q 0.367875,-0.779895 1.08891,-1.1772 0.73575,-0.397305 1.809945,-0.397305 v 1.015335 l -0.250155,-0.014715 q -1.221345,0 -1.91295,0.750465 -0.691605,0.750465 -0.691605,2.1042451 V 0 h -1.044765 v -7.7400901 h 1.00062 z" />
          <path
             inkscape:connector-curvature="0"
             id="path7165"
             d="m 37.230878,-7.7989501 q 1.456785,0 2.310255,0.85347 0.868185,0.838755 0.868185,2.4574051 V 0 h -1.044765 v -4.38507 q 0,-1.2066301 -0.603315,-1.8393751 -0.603315,-0.632745 -1.721655,-0.632745 -1.250775,0 -1.986525,0.750465 -0.721035,0.73575 -0.721035,2.0453851 V 0 h -1.044765 v -7.7400901 h 1.00062 v 1.427355 q 0.426735,-0.70632 1.1772,-1.08891 0.76518,-0.397305 1.7658,-0.397305 z" />
          <path
             inkscape:connector-curvature="0"
             id="path7167"
             d="m 53.04509,-3.546315 h -6.4746 q 0.08829,1.20663 0.927045,1.957095 0.838755,0.73574999 2.11896,0.73574999 0.721035,0 1.32435,-0.25015499 0.603315,-0.26487 1.044765,-0.76518 l 0.5886,0.67689 q -0.515025,0.61802999 -1.29492,0.94176 -0.76518,0.32373 -1.692225,0.32373 -1.191915,0 -2.11896,-0.50031 -0.91233,-0.51502501 -1.427355,-1.41264 -0.515025,-0.897615 -0.515025,-2.03067 0,-1.1330551 0.485595,-2.0306701 0.50031,-0.897615 1.35378,-1.397925 0.868185,-0.50031 1.94238,-0.50031 1.074195,0 1.927665,0.50031 0.85347,0.50031 1.339065,1.397925 0.485595,0.8829 0.485595,2.0306701 z m -3.73761,-3.3550201 q -1.11834,0 -1.88352,0.721035 -0.750465,0.70632 -0.85347,1.8540901 h 5.488695 Q 51.95618,-5.4739801 51.191,-6.1803001 q -0.750465,-0.721035 -1.88352,-0.721035 z" />
          <path
             inkscape:connector-curvature="0"
             id="path7169"
             d="m 60.295287,0.073575 q -0.94176,0 -1.809945,-0.26487 -0.85347,-0.279585 -1.339065,-0.69160501 L 57.617157,-1.70694 q 0.485595,0.38259 1.221345,0.632745 0.73575,0.23543999 1.53036,0.23543999 1.05948,0 1.55979,-0.32372999 0.515025,-0.338445 0.515025,-0.94176 0,-0.426735 -0.279585,-0.662175 -0.279585,-0.250155 -0.70632,-0.367875 -0.426735,-0.132435 -1.133055,-0.250155 -0.94176,-0.17658 -1.515645,-0.35316 -0.573885,-0.191295 -0.985905,-0.632745 -0.397305,-0.44145 -0.397305,-1.2213451 0,-0.97119 0.809325,-1.58922 0.809325,-0.61803 2.251395,-0.61803 0.750465,0 1.50093,0.20601 0.750465,0.191295 1.23606,0.515025 l -0.456165,0.838755 q -0.956475,-0.662175 -2.280825,-0.662175 -1.00062,0 -1.515645,0.35316 -0.50031,0.35316 -0.50031,0.927045 0,0.44145 0.279585,0.70632 0.2943,0.2648701 0.721035,0.3973051 0.426735,0.11772 1.1772,0.250155 0.927045,0.17658 1.486215,0.35316 0.55917,0.17658 0.956475,0.603315 0.397305,0.426735 0.397305,1.1772 0,1.015335 -0.85347,1.61864999 Q 61.796217,0.073575 60.295287,0.073575 Z" />
          <path
             inkscape:connector-curvature="0"
             id="path7171"
             d="m 78.228293,0.073575 q -0.94176,0 -1.809945,-0.26487 -0.85347,-0.279585 -1.339065,-0.69160501 L 75.550163,-1.70694 q 0.485595,0.38259 1.221345,0.632745 0.73575,0.23543999 1.53036,0.23543999 1.05948,0 1.55979,-0.32372999 0.515025,-0.338445 0.515025,-0.94176 0,-0.426735 -0.279585,-0.662175 -0.279585,-0.250155 -0.70632,-0.367875 -0.426735,-0.132435 -1.133055,-0.250155 -0.94176,-0.17658 -1.515645,-0.35316 -0.573885,-0.191295 -0.985905,-0.632745 -0.397305,-0.44145 -0.397305,-1.2213451 0,-0.97119 0.809325,-1.58922 0.809325,-0.61803 2.251395,-0.61803 0.750465,0 1.50093,0.20601 0.750465,0.191295 1.23606,0.515025 l -0.456165,0.838755 q -0.956475,-0.662175 -2.280825,-0.662175 -1.00062,0 -1.515645,0.35316 -0.50031,0.35316 -0.50031,0.927045 0,0.44145 0.279585,0.70632 0.2943,0.2648701 0.721035,0.3973051 0.426735,0.11772 1.1772,0.250155 0.927045,0.17658 1.486215,0.35316 0.55917,0.17658 0.956475,0.603315 0.397305,0.426735 0.397305,1.1772 0,1.015335 -0.85347,1.61864999 Q 79.729223,0.073575 78.228293,0.073575 Z" />
          <path
             inkscape:connector-curvature="0"
             id="path7173"
             d="m 93.115223,-3.546315 h -6.4746 q 0.08829,1.20663 0.927045,1.957095 0.838755,0.73574999 2.11896,0.73574999 0.721035,0 1.32435,-0.25015499 0.603315,-0.26487 1.044765,-0.76518 l 0.5886,0.67689 q -0.515025,0.61802999 -1.29492,0.94176 -0.76518,0.32373 -1.692225,0.32373 -1.191915,0 -2.11896,-0.50031 -0.91233,-0.51502501 -1.427355,-1.41264 -0.515025,-0.897615 -0.515025,-2.03067 0,-1.1330551 0.485595,-2.0306701 0.50031,-0.897615 1.35378,-1.397925 0.868185,-0.50031 1.94238,-0.50031 1.074195,0 1.927665,0.50031 0.85347,0.50031 1.339065,1.397925 0.485595,0.8829 0.485595,2.0306701 z m -3.73761,-3.3550201 q -1.11834,0 -1.88352,0.721035 -0.750465,0.70632 -0.85347,1.8540901 h 5.488695 q -0.103005,-1.1477701 -0.868185,-1.8540901 -0.750465,-0.721035 -1.88352,-0.721035 z" />
          <path
             inkscape:connector-curvature="0"
             id="path7175"
             d="m 98.290594,-10.91853 h 1.044765 V 0 h -1.044765 z" />
          <path
             inkscape:connector-curvature="0"
             id="path7177"
             d="m 112.01523,-3.546315 h -6.4746 q 0.0883,1.20663 0.92705,1.957095 0.83875,0.73574999 2.11896,0.73574999 0.72103,0 1.32435,-0.25015499 0.60331,-0.26487 1.04476,-0.76518 l 0.5886,0.67689 q -0.51502,0.61802999 -1.29492,0.94176 -0.76518,0.32373 -1.69222,0.32373 -1.19192,0 -2.11896,-0.50031 -0.91233,-0.51502501 -1.42736,-1.41264 -0.51502,-0.897615 -0.51502,-2.03067 0,-1.1330551 0.48559,-2.0306701 0.50031,-0.897615 1.35378,-1.397925 0.86819,-0.50031 1.94238,-0.50031 1.0742,0 1.92767,0.50031 0.85347,0.50031 1.33906,1.397925 0.4856,0.8829 0.4856,2.0306701 z m -3.73761,-3.3550201 q -1.11834,0 -1.88352,0.721035 -0.75046,0.70632 -0.85347,1.8540901 h 5.4887 q -0.10301,-1.1477701 -0.86819,-1.8540901 -0.75046,-0.721035 -1.88352,-0.721035 z" />
          <path
             inkscape:connector-curvature="0"
             id="path7179"
             d="m 120.39847,0.073575 q -1.14777,0 -2.0601,-0.50031 -0.89762,-0.50031001 -1.41264,-1.397925 -0.51503,-0.91233 -0.51503,-2.045385 0,-1.1330551 0.51503,-2.0306701 0.51502,-0.897615 1.41264,-1.397925 0.91233,-0.50031 2.0601,-0.50031 1.00062,0 1.78051,0.397305 0.79461,0.38259 1.25078,1.133055 l -0.7799,0.52974 q -0.38259,-0.573885 -0.97119,-0.85347 -0.5886,-0.2943 -1.2802,-0.2943 -0.83876,0 -1.51565,0.38259 -0.66217,0.367875 -1.04476,1.05948 -0.36788,0.6916051 -0.36788,1.5745051 0,0.897615 0.36788,1.58922 0.38259,0.67689 1.04476,1.05948 0.67689,0.36787499 1.51565,0.36787499 0.6916,0 1.2802,-0.27958499 0.5886,-0.279585 0.97119,-0.85347 l 0.7799,0.52974 q -0.45617,0.75046499 -1.25078,1.14777 -0.79461,0.38259 -1.78051,0.38259 z" />
          <path
             inkscape:connector-curvature="0"
             id="path7181"
             d="m 132.66626,-0.47088 q -0.2943,0.26487 -0.73575,0.41202 -0.42673,0.132435 -0.89761,0.132435 -1.08891,0 -1.67751,-0.58860001 -0.5886,-0.58859999 -0.5886,-1.66279499 v -4.6793701 h -1.38321 v -0.8829 h 1.38321 v -1.692225 h 1.04476 v 1.692225 h 2.3544 v 0.8829 h -2.3544 V -2.23668 q 0,0.691605 0.33845,1.05948 0.35316,0.35315999 1.00062,0.35315999 0.32373,0 0.61803,-0.103005 0.30901,-0.10300499 0.52974,-0.29429999 z" />
          <path
             inkscape:connector-curvature="0"
             id="path7183"
             d="m 140.29932,-7.7989501 q 1.51565,0 2.32497,0.76518 0.80933,0.750465 0.80933,2.2366801 V 0 H 142.433 v -1.20663 q -0.35316,0.60331499 -1.04477,0.94176 -0.67689,0.338445 -1.61865,0.338445 -1.29492,0 -2.0601,-0.61803001 Q 136.9443,-1.162485 136.9443,-2.17782 q 0,-0.985905 0.70632,-1.58922 0.72104,-0.603315 2.28083,-0.603315 h 2.4574 v -0.4708801 q 0,-1.00062 -0.55917,-1.515645 -0.55917,-0.52974 -1.63336,-0.52974 -0.73575,0 -1.41264,0.250155 -0.67689,0.23544 -1.16249,0.662175 l -0.47088,-0.779895 q 0.5886,-0.50031 1.41264,-0.76518 0.82404,-0.279585 1.73637,-0.279585 z m -0.36787,7.04848509 q 0.8829,0 1.51564,-0.39730499 0.63275,-0.41202 0.94176,-1.1772 v -1.26549 h -2.42797 q -1.98653,0 -1.98653,1.38321 0,0.67689 0.51503,1.074195 0.51502,0.38258999 1.44207,0.38258999 z" />
          <path
             inkscape:connector-curvature="0"
             id="path7185"
             d="m 151.37517,0.073575 q -0.94176,0 -1.80995,-0.26487 -0.85347,-0.279585 -1.33906,-0.69160501 L 148.69704,-1.70694 q 0.48559,0.38259 1.22134,0.632745 0.73575,0.23543999 1.53036,0.23543999 1.05948,0 1.55979,-0.32372999 0.51503,-0.338445 0.51503,-0.94176 0,-0.426735 -0.27959,-0.662175 -0.27958,-0.250155 -0.70632,-0.367875 -0.42673,-0.132435 -1.13305,-0.250155 -0.94176,-0.17658 -1.51565,-0.35316 -0.57388,-0.191295 -0.9859,-0.632745 -0.39731,-0.44145 -0.39731,-1.2213451 0,-0.97119 0.80933,-1.58922 0.80932,-0.61803 2.25139,-0.61803 0.75047,0 1.50093,0.20601 0.75047,0.191295 1.23606,0.515025 l -0.45616,0.838755 q -0.95648,-0.662175 -2.28083,-0.662175 -1.00062,0 -1.51564,0.35316 -0.50031,0.35316 -0.50031,0.927045 0,0.44145 0.27958,0.70632 0.2943,0.2648701 0.72104,0.3973051 0.42673,0.11772 1.1772,0.250155 0.92704,0.17658 1.48621,0.35316 0.55917,0.17658 0.95648,0.603315 0.3973,0.426735 0.3973,1.1772 0,1.015335 -0.85347,1.61864999 Q 152.8761,0.073575 151.37517,0.073575 Z" />
        </g>
      </g>
      <path
         inkscape:connector-curvature="0"
         id="path94"
         style="fill:#ffffff;fill-opacity:1;fill-rule:evenodd;stroke:none;stroke-width:0.03527778"
         d="m 77.203711,91.609422 c 0.9913,0 1.79811,0.529166 2.5908,1.04775 0.44944,0.292805 0.89358,0.582083 1.30774,0.716139 0.44556,0.144639 0.99625,0.176389 1.54482,0.204611 0.93909,0.04939 1.87466,0.102305 2.64548,0.663222 0.77929,0.567972 1.11689,1.446389 1.4538,2.324806 0.1972,0.515055 0.39475,1.030111 0.65934,1.393472 h 0.002 c 0.26493,0.363361 0.68474,0.702028 1.10631,1.040694 0.7366,0.592667 1.4792,1.192394 1.77976,2.116664 0.28858,0.889 0.0508,1.78153 -0.19014,2.68817 -0.14323,0.53622 -0.28822,1.0795 -0.28822,1.56633 0,0.48684 0.14499,1.03011 0.28822,1.56986 0.24094,0.90312 0.47872,1.79564 0.19014,2.68464 -0.30021,0.92428 -1.04316,1.524 -1.77976,2.11667 -0.42192,0.33867 -0.84138,0.67733 -1.10631,1.04069 h -0.002 c -0.26459,0.36337 -0.46214,0.87842 -0.65934,1.39348 -0.33691,0.87841 -0.67487,1.76036 -1.4538,2.32833 -0.77082,0.55739 -1.70603,0.61031 -2.64548,0.65969 -0.54857,0.0282 -1.09926,0.06 -1.54482,0.20462 -0.41416,0.13405 -0.85866,0.42333 -1.30774,0.71966 -0.79269,0.51859 -1.5995,1.04422 -2.5908,1.04422 -0.99096,0 -1.79776,-0.52563 -2.59045,-1.04422 -0.44908,-0.29633 -0.89358,-0.58561 -1.30775,-0.71966 -0.44591,-0.14464 -0.99659,-0.17639 -1.54516,-0.20462 -0.9391,-0.0494 -1.87466,-0.1023 -2.64513,-0.66322 -0.77964,-0.56444 -1.11725,-1.44639 -1.4538,-2.3248 -0.19755,-0.51506 -0.39476,-1.03011 -0.65934,-1.39348 -0.26176,-0.35983 -0.68439,-0.6985 -1.10878,-1.04069 -0.7366,-0.59267 -1.47955,-1.19239 -1.77976,-2.11667 -0.28858,-0.889 -0.0508,-1.78152 0.19014,-2.68464 0.14288,-0.53975 0.28752,-1.08302 0.28752,-1.56986 0,-0.48683 -0.14464,-1.03011 -0.28752,-1.56633 -0.24094,-0.90664 -0.47872,-1.79917 -0.19014,-2.68817 0.30021,-0.92427 1.04316,-1.523997 1.77976,-2.116664 0.42474,-0.342194 0.84737,-0.680861 1.10878,-1.040694 0.26458,-0.363361 0.46179,-0.878417 0.65934,-1.393472 0.33655,-0.878417 0.67451,-1.760361 1.4538,-2.324806 0.77011,-0.560917 1.70638,-0.613833 2.64548,-0.663222 0.54857,-0.02822 1.09925,-0.05997 1.54481,-0.204611 0.41417,-0.134056 0.85831,-0.423334 1.30775,-0.716139 0.79269,-0.518584 1.59949,-1.04775 2.59045,-1.04775" />
      <path
         inkscape:connector-curvature="0"
         id="path96"
         style="fill:#061950;fill-opacity:1;fill-rule:nonzero;stroke:none;stroke-width:0.03527778"
         d="m 77.107751,93.126366 c 0.81492,0 1.51271,0.458611 2.19745,0.906639 0.42651,0.278695 0.84773,0.553861 1.2633,0.687917 0.44309,0.144639 0.9652,0.172861 1.4852,0.201083 0.81209,0.04233 1.62101,0.08467 2.25107,0.543278 0.63747,0.465667 0.92957,1.227667 1.22061,1.986139 0.18662,0.486833 0.37324,0.973666 0.63994,1.340555 0.26282,0.359834 0.66252,0.680861 1.06433,1.005417 l 0.19262,0.155222 h -0.81774 c -0.31962,-0.264583 -0.62195,-0.53975 -0.85478,-0.85725 -0.31115,-0.430389 -0.50871,-0.945444 -0.70626,-1.4605 -0.26423,-0.687916 -0.52952,-1.379361 -1.0414,-1.753305 -0.50518,-0.366889 -1.2386,-0.405695 -1.9745,-0.4445 -0.55562,-0.03175 -1.11301,-0.05997 -1.61819,-0.225778 -0.48295,-0.155222 -0.93204,-0.451556 -1.38642,-0.747889 -0.62089,-0.405694 -1.25306,-0.818444 -1.91523,-0.818444 -0.66216,0 -1.29399,0.41275 -1.91487,0.818444 -0.45438,0.296333 -0.90418,0.592667 -1.38642,0.747889 -0.50518,0.165806 -1.06257,0.194028 -1.61819,0.225778 -0.7359,0.03881 -1.46932,0.07761 -1.97485,0.4445 -0.51153,0.373944 -0.77682,1.065389 -1.04105,1.753305 -0.19756,0.515056 -0.39511,1.030111 -0.70662,1.4605 -0.23283,0.3175 -0.53516,0.592667 -0.85513,0.85725 h -0.81738 l 0.19261,-0.155222 c 0.40182,-0.324556 0.80151,-0.645583 1.06433,-1.005417 0.26706,-0.366889 0.45367,-0.853722 0.63994,-1.340555 0.2914,-0.758472 0.5835,-1.520472 1.22097,-1.986139 0.63006,-0.458611 1.43898,-0.500944 2.25107,-0.543278 0.51999,-0.02822 1.04211,-0.05644 1.48484,-0.201083 0.41558,-0.134056 0.83714,-0.409222 1.2633,-0.687917 0.68509,-0.448028 1.38254,-0.906639 2.19745,-0.906639 z m -9.49677,17.663584 c 0.31961,0.26458 0.62194,0.53975 0.85477,0.86078 0.31151,0.42686 0.50871,0.94191 0.70662,1.45697 0.26423,0.68792 0.52952,1.37936 1.04105,1.75331 0.50553,0.36688 1.23895,0.40569 1.97485,0.44802 0.55562,0.0282 1.11301,0.06 1.61819,0.22225 0.48224,0.15523 0.93204,0.45156 1.38642,0.74789 0.62088,0.4057 1.25271,0.81845 1.91487,0.81845 0.66217,0 1.29399,-0.41275 1.91523,-0.81845 0.45438,-0.29633 0.90382,-0.59266 1.38607,-0.74789 0.50518,-0.16227 1.06256,-0.19402 1.61854,-0.22225 0.7359,-0.0423 1.46932,-0.0811 1.9745,-0.44802 0.51152,-0.37395 0.77717,-1.06539 1.0414,-1.75331 0.19755,-0.51506 0.39511,-1.03011 0.70626,-1.45697 0.23319,-0.32103 0.53551,-0.5962 0.85513,-0.86078 h 0.81739 l -0.19262,0.15522 c -0.40181,0.32456 -0.80151,0.64559 -1.06433,1.00542 -0.26705,0.36689 -0.45332,0.85372 -0.63994,1.34055 -0.29104,0.75848 -0.58349,1.52048 -1.22061,1.98614 -0.63006,0.45861 -1.43898,0.50095 -2.25107,0.54328 -0.52035,0.0282 -1.04246,0.0564 -1.4852,0.20108 -0.41557,0.13406 -0.83714,0.40923 -1.2633,0.68792 -0.68509,0.45156 -1.38253,0.90664 -2.19745,0.90664 -0.81491,0 -1.51236,-0.45508 -2.19745,-0.90664 -0.42616,-0.27869 -0.84772,-0.55386 -1.2633,-0.68792 -0.44273,-0.14463 -0.96485,-0.17286 -1.48484,-0.20108 -0.81209,-0.0423 -1.62101,-0.0847 -2.25107,-0.54328 -0.63747,-0.46566 -0.92957,-1.22766 -1.22097,-1.98614 -0.18662,-0.48683 -0.37288,-0.97366 -0.63994,-1.34055 -0.26282,-0.35983 -0.66251,-0.68086 -1.06433,-1.00542 -0.0642,-0.0529 -0.12876,-0.1023 -0.19261,-0.15522" />
      <path
         inkscape:connector-curvature="0"
         id="path98"
         style="fill:#061950;fill-opacity:1;fill-rule:nonzero;stroke:none;stroke-width:0.03527778"
         d="m 79.244181,105.33248 h 1.41463 v 2.71639 c -0.36301,0.27516 -0.78387,0.4833 -1.26153,0.63147 -0.47837,0.14464 -0.95955,0.21872 -1.44392,0.21872 -0.69462,0 -1.31939,-0.14817 -1.8736,-0.4445 -0.55457,-0.29633 -0.98954,-0.70555 -1.30528,-1.23472 -0.31538,-0.52564 -0.47308,-1.11831 -0.47308,-1.78153 0,-0.66322 0.1577,-1.25589 0.47308,-1.78153 0.31574,-0.52564 0.75389,-0.93839 1.3148,-1.23472 0.56057,-0.29633 1.19169,-0.4445 1.89266,-0.4445 0.58666,0 1.11865,0.0988 1.59667,0.29633 0.47801,0.19756 0.87983,0.48331 1.20473,0.86078 l -0.99448,0.91722 c -0.47801,-0.50447 -1.0548,-0.75494 -1.73037,-0.75494 -0.42721,0 -0.8061,0.0882 -1.13771,0.26811 -0.33126,0.17639 -0.58949,0.43039 -0.77435,0.75495 -0.18485,0.32455 -0.27693,0.6985 -0.27693,1.1183 0,0.41275 0.0921,0.78317 0.27693,1.10772 0.18486,0.32809 0.44133,0.57856 0.76976,0.762 0.32809,0.17992 0.70239,0.27164 1.12325,0.27164 0.44626,0 0.84772,-0.0952 1.20474,-0.28575" />
      <path
         inkscape:connector-curvature="0"
         id="path100"
         style="fill:#061950;fill-opacity:1;fill-rule:nonzero;stroke:none;stroke-width:0.03527778"
         d="m 77.834481,111.55548 c -1.18534,0 -2.26801,-0.25753 -3.21275,-0.79022 -0.96238,-0.5327 -1.71803,-1.25589 -2.25073,-2.20134 -0.54962,-0.9278 -0.82444,-1.97555 -0.82444,-3.12561 0,-1.15005 0.27482,-2.1978 0.82444,-3.14325 0.5327,-0.9278 1.28835,-1.651 2.25073,-2.18369 0.96202,-0.532698 2.04435,-0.790226 3.22968,-0.790226 0.89358,0 1.71803,0.155222 2.47403,0.448028 0.756,0.292808 1.39171,0.737308 1.92405,1.305278 l -0.80751,0.80786 c -0.94474,-0.94544 -2.13007,-1.42522 -3.556,-1.42522 -0.94509,0 -1.82139,0.22225 -2.59433,0.65264 -0.77293,0.43039 -1.39171,1.03011 -1.82104,1.78505 -0.44661,0.75848 -0.66992,1.59809 -0.66992,2.54353 0,0.94545 0.22331,1.78858 0.66992,2.54353 0.42933,0.75494 1.04811,1.35467 1.82104,1.78505 0.77294,0.43039 1.64924,0.65264 2.59433,0.65264 1.44286,0 2.62855,-0.47977 3.556,-1.44286 l 0.80751,0.80786 c -0.53234,0.56798 -1.16805,1.01248 -1.92405,1.30528 -0.77329,0.31045 -1.59773,0.46567 -2.49096,0.46567" />
      <path
         inkscape:connector-curvature="0"
         id="path102"
         style="fill:#061950;fill-opacity:1;fill-rule:nonzero;stroke:none;stroke-width:0.03527778"
         d="m 89.043641,104.24239 -0.6791,-0.81844 -0.6791,0.81844 0.6791,0.81492 z m -0.6791,3.07623 0.6791,-0.81845 -0.6791,-0.81491 -0.6791,0.81491 z m -1.13207,1.36172 0.87313,-1.05128 -0.6791,-0.81492 -0.89746,1.0795 -0.25859,-0.31397 0.89782,-1.0795 -0.68016,-0.81844 -0.89605,1.0795 -0.25965,-0.31397 0.85337,-1.02659 h -0.013 l 0.0508,-0.0494 -0.0508,-0.0494 h 0.013 l -0.85337,-1.02658 0.25965,-0.31045 0.89605,1.07598 0.68016,-0.81845 -0.89782,-1.0795 0.25859,-0.31044 0.89746,1.07597 0.6791,-0.81492 -0.89923,-1.0795 0.25894,-0.31397 0.89923,1.08303 1.38677,-1.68981 v 0.63148 l -1.12748,1.36877 c 0.31291,0.37748 0.62477,0.75495 0.93909,1.12889 -0.30092,0.35631 -0.59937,0.71967 -0.89817,1.0795 h 0.005 l -0.0434,0.0494 0.0434,0.0494 h -0.005 c 0.2988,0.35984 0.59725,0.7232 0.89817,1.0795 -0.31432,0.37747 -0.62618,0.75495 -0.93909,1.12889 l 1.12748,1.36878 v 0.63147 l -1.38677,-1.68628 -0.89923,1.0795 -0.25894,-0.31044 z m -0.44238,-3.35845 h 7.9e-4 l -0.0296,0.0318 -0.0134,0.0176 0.0134,0.0176 0.0296,0.0318 h -7.9e-4 l 0.63712,0.76906 0.63747,-0.76906 h -0.005 l 0.0434,-0.0494 -0.0434,-0.0494 h 0.005 l -0.63747,-0.76905" />
      <path
         inkscape:connector-curvature="0"
         id="path104"
         style="fill:#061950;fill-opacity:1;fill-rule:nonzero;stroke:none;stroke-width:0.03527778"
         d="m 65.451271,104.24239 0.6791,-0.81844 0.67909,0.81844 -0.67909,0.81492 z m 0.6791,3.07623 -0.6791,-0.81845 0.6791,-0.81491 0.67909,0.81491 z m 1.13206,1.36172 -0.87313,-1.05128 0.67945,-0.81492 0.89712,1.0795 0.25894,-0.31397 -0.89782,-1.0795 0.68015,-0.81844 0.89606,1.0795 0.25964,-0.31397 -0.85372,-1.02659 h 0.0134 l -0.0512,-0.0494 0.0512,-0.0494 h -0.0134 l 0.85372,-1.02658 -0.25964,-0.31045 -0.89606,1.07598 -0.68015,-0.81845 0.89782,-1.0795 -0.25894,-0.31044 -0.89712,1.07597 -0.67945,-0.81492 0.89924,-1.0795 -0.25894,-0.31397 -0.89888,1.08303 -1.38712,-1.68981 v 0.63148 l 1.12748,1.36877 c -0.31257,0.37748 -0.62442,0.75495 -0.93875,1.12889 0.30057,0.35631 0.59902,0.71967 0.89782,1.0795 h -0.005 l 0.0434,0.0494 -0.0434,0.0494 h 0.005 c -0.2988,0.35984 -0.59725,0.7232 -0.89782,1.0795 0.31433,0.37747 0.62618,0.75495 0.93875,1.12889 l -1.12748,1.36878 v 0.63147 l 1.38712,-1.68628 0.89888,1.0795 0.25894,-0.31044 z m 0.44274,-3.35845 h -0.001 l 0.03,0.0318 0.013,0.0176 -0.013,0.0176 -0.03,0.0318 h 0.001 l -0.63747,0.76906 -0.63747,-0.76906 h 0.005 l -0.0434,-0.0494 0.0434,-0.0494 h -0.005 l 0.63747,-0.76905" />
    </g>
  </g>
</svg>
