<?xml version="1.0" encoding="UTF-8" standalone="no"?>
<!-- Created with Inkscape (http://www.inkscape.org/) -->

<svg
   xmlns:dc="http://purl.org/dc/elements/1.1/"
   xmlns:cc="http://creativecommons.org/ns#"
   xmlns:rdf="http://www.w3.org/1999/02/22-rdf-syntax-ns#"
   xmlns:svg="http://www.w3.org/2000/svg"
   xmlns="http://www.w3.org/2000/svg"
   xmlns:sodipodi="http://sodipodi.sourceforge.net/DTD/sodipodi-0.dtd"
   xmlns:inkscape="http://www.inkscape.org/namespaces/inkscape"
   width="50mm"
   height="50mm"
   viewBox="0 0 50 50"
   version="1.1"
   id="svg5067"
   inkscape:version="0.92.3 (2405546, 2018-03-11)"
   sodipodi:docname="logo.svg"
   inkscape:export-filename="/opt/odoo/13/sources/grancorte/theme_grancorte/static/src/img/content/logo.png"
   inkscape:export-xdpi="90"
   inkscape:export-ydpi="90">
  <defs
     id="defs5061" />
  <sodipodi:namedview
     id="base"
     pagecolor="#ffffff"
     bordercolor="#666666"
     borderopacity="1.0"
     inkscape:pageopacity="0.0"
     inkscape:pageshadow="2"
     inkscape:zoom="0.49497475"
     inkscape:cx="-138.28427"
     inkscape:cy="115.53288"
     inkscape:document-units="mm"
     inkscape:current-layer="layer1"
     showgrid="false"
     inkscape:window-width="1366"
     inkscape:window-height="713"
     inkscape:window-x="0"
     inkscape:window-y="459"
     inkscape:window-maximized="1" />
  <metadata
     id="metadata5064">
    <rdf:RDF>
      <cc:Work
         rdf:about="">
        <dc:format>image/svg+xml</dc:format>
        <dc:type
           rdf:resource="http://purl.org/dc/dcmitype/StillImage" />
        <dc:title />
      </cc:Work>
    </rdf:RDF>
  </metadata>
  <g
     inkscape:label="Capa 1"
     inkscape:groupmode="layer"
     id="layer1"
     transform="translate(0,-247)">
    <g
       transform="matrix(0.03527778,0,0,-0.03527778,-123.66926,1312.4511)"
       id="g1252">
      <path
         inkscape:connector-curvature="0"
         id="path64"
         style="fill:#061950;fill-opacity:1;fill-rule:evenodd;stroke:none"
         d="m 4214.25,30180.8 c 49.54,0 89.84,-26.3 129.46,-52.2 22.45,-14.7 44.65,-29.2 65.34,-36 22.27,-7.2 49.79,-8.7 77.2,-10.1 46.93,-2.6 93.68,-5.1 132.19,-33.1 38.95,-28.3 55.82,-72.3 72.65,-116.2 9.86,-25.8 19.73,-51.5 32.96,-69.7 h 0.12 c 13.23,-18.2 34.21,-35.1 55.29,-52 36.8,-29.7 73.92,-59.6 88.93,-105.8 14.41,-44.4 2.53,-89 -9.51,-134.2 -7.16,-26.9 -14.39,-54 -14.39,-78.4 0,-24.3 7.23,-51.4 14.39,-78.3 12.04,-45.2 23.92,-89.8 9.51,-134.2 -15.01,-46.2 -52.14,-76.2 -88.94,-105.8 -21.08,-17 -42.05,-33.9 -55.28,-52 h -0.12 c -13.23,-18.2 -23.1,-43.9 -32.96,-69.7 -16.83,-43.9 -33.71,-87.9 -72.65,-116.2 -38.5,-28 -85.26,-30.5 -132.18,-33.1 -27.42,-1.4 -54.94,-2.9 -77.21,-10.2 -20.69,-6.7 -42.9,-21.2 -65.35,-35.9 -39.61,-25.9 -79.93,-52.3 -129.45,-52.3 -49.53,0 -89.84,26.4 -129.45,52.3 -22.46,14.7 -44.67,29.2 -65.37,35.9 -22.26,7.3 -49.78,8.8 -77.2,10.2 -46.93,2.6 -93.68,5.1 -132.18,33.1 -38.95,28.4 -55.82,72.3 -72.65,116.2 -9.86,25.8 -19.73,51.5 -32.95,69.7 -13.07,17.9 -34.19,34.9 -55.41,52 -36.8,29.7 -73.93,59.5 -88.93,105.8 -14.42,44.4 -2.54,89 9.5,134.2 7.15,26.9 14.38,54 14.38,78.3 0,24.4 -7.23,51.5 -14.38,78.4 -12.04,45.2 -23.92,89.8 -9.5,134.2 15,46.3 52.13,76.2 88.94,105.8 21.22,17.1 42.34,34.1 55.4,52 13.23,18.2 23.1,43.9 32.96,69.7 16.82,43.9 33.71,87.9 72.64,116.2 38.49,28 85.26,30.5 132.2,33.1 27.41,1.4 54.94,2.9 77.19,10.1 20.69,6.8 42.9,21.3 65.35,36 39.62,25.9 79.93,52.2 129.46,52.2" />
      <path
         inkscape:connector-curvature="0"
         id="path66"
         style="fill:#c5a15b;fill-opacity:1;fill-rule:nonzero;stroke:none"
         d="m 4209.44,30105 c 40.73,0 75.59,-22.8 109.82,-45.2 21.3,-13.9 42.35,-27.7 63.13,-34.4 22.13,-7.2 48.22,-8.6 74.22,-10 40.57,-2.2 80.99,-4.4 112.47,-27.3 31.86,-23.2 46.46,-61.3 61.01,-99.2 9.33,-24.3 18.64,-48.6 31.97,-66.9 13.14,-18.1 33.11,-34.2 53.19,-50.3 l 9.62,-7.8 h -40.85 c -15.98,13.2 -31.09,27 -42.72,42.9 -15.55,21.4 -25.42,47.1 -35.3,72.9 -13.21,34.5 -26.46,69 -52.04,87.6 -25.25,18.4 -61.89,20.4 -98.66,22.4 -27.77,1.4 -55.63,3 -80.87,11.1 -24.13,7.9 -46.57,22.6 -69.28,37.4 -31.03,20.3 -62.61,41 -95.71,41 -33.08,0 -64.66,-20.7 -95.69,-41 -22.7,-14.8 -45.16,-29.5 -69.28,-37.3 -25.24,-8.2 -53.09,-9.7 -80.86,-11.2 -36.77,-2 -73.42,-4 -98.68,-22.4 -25.57,-18.6 -38.82,-53.1 -52.02,-87.6 -9.88,-25.7 -19.75,-51.5 -35.31,-72.8 -11.64,-16 -26.75,-29.8 -42.72,-43 h -40.86 l 9.62,7.8 c 20.09,16.1 40.06,32.2 53.2,50.3 13.34,18.3 22.66,42.6 31.97,66.9 14.55,38 29.15,76 61,99.2 31.49,22.9 71.91,25.1 112.49,27.3 25.99,1.4 52.09,2.8 74.21,10 20.77,6.7 41.84,20.5 63.13,34.4 34.23,22.4 69.09,45.2 109.8,45.2 z m -474.56,-882.6 c 15.97,-13.2 31.08,-27 42.72,-43 15.56,-21.3 25.42,-47.1 35.29,-72.8 13.22,-34.5 26.47,-69 52.04,-87.6 25.26,-18.4 61.91,-20.4 98.68,-22.4 27.77,-1.5 55.62,-3 80.86,-11.2 24.12,-7.8 46.58,-22.5 69.28,-37.3 31.03,-20.3 62.61,-41 95.69,-41 33.09,0 64.67,20.7 95.7,41 22.72,14.8 45.17,29.5 69.28,37.3 25.24,8.2 53.1,9.7 80.87,11.2 36.77,2 73.42,4 98.67,22.4 25.57,18.6 38.83,53.1 52.04,87.6 9.88,25.7 19.74,51.5 35.3,72.8 11.64,16 26.75,29.8 42.72,43 h 40.86 l -9.63,-7.8 c -20.08,-16.1 -40.05,-32.2 -53.19,-50.3 -13.33,-18.3 -22.65,-42.6 -31.97,-66.9 -14.55,-38 -29.16,-76 -61.01,-99.2 -31.48,-22.9 -71.9,-25.1 -112.48,-27.3 -26,-1.4 -52.1,-2.8 -74.22,-10 -20.77,-6.7 -41.83,-20.5 -63.12,-34.4 -34.24,-22.4 -69.1,-45.2 -109.82,-45.2 -40.72,0 -75.57,22.8 -109.8,45.2 -21.29,13.9 -42.35,27.7 -63.13,34.4 -22.12,7.2 -48.22,8.6 -74.21,10 -40.58,2.2 -81,4.4 -112.49,27.3 -31.85,23.2 -46.45,61.3 -61.01,99.2 -9.31,24.3 -18.63,48.6 -31.96,66.9 -13.14,18.1 -33.11,34.2 -53.19,50.3 -3.21,2.6 -6.43,5.2 -9.63,7.8" />
      <path
         inkscape:connector-curvature="0"
         id="path68"
         style="fill:#c5a15b;fill-opacity:1;fill-rule:nonzero;stroke:none"
         d="m 4316.2,29495.1 h 70.7 v -135.7 c -18.15,-13.7 -39.17,-24.2 -63.06,-31.5 -23.89,-7.4 -47.93,-11 -72.13,-11 -34.72,0 -65.94,7.4 -93.64,22.2 -27.71,14.8 -49.45,35.3 -65.21,61.6 -15.77,26.3 -23.65,56 -23.65,89.1 0,33.1 7.88,62.8 23.65,89.1 15.76,26.3 37.66,46.8 65.68,61.6 28.03,14.8 59.56,22.2 94.6,22.2 29.3,0 55.89,-4.9 79.78,-14.8 23.88,-9.8 43.95,-24.2 60.19,-43 l -49.68,-45.8 c -23.89,25.1 -52.71,37.7 -86.47,37.7 -21.34,0 -40.29,-4.4 -56.85,-13.4 -16.56,-8.9 -29.46,-21.5 -38.7,-37.7 -9.23,-16.2 -13.86,-34.9 -13.86,-55.9 0,-20.7 4.63,-39.2 13.86,-55.4 9.24,-16.3 22.05,-28.9 38.46,-38 16.4,-9.1 35.11,-13.6 56.13,-13.6 22.3,0 42.36,4.8 60.2,14.3" />
      <path
         inkscape:connector-curvature="0"
         id="path70"
         style="fill:#c5a15b;fill-opacity:1;fill-rule:nonzero;stroke:none"
         d="m 4245.75,29184.2 c -59.23,0 -113.32,12.9 -160.53,39.5 -48.08,26.6 -85.86,62.6 -112.47,109.9 -27.47,46.3 -41.21,98.7 -41.21,156.2 0,57.5 13.74,109.9 41.21,157.1 26.61,46.4 64.39,82.4 112.47,109 48.07,26.7 102.16,39.5 161.39,39.5 44.65,0 85.85,-7.7 123.62,-22.3 37.78,-14.6 69.54,-36.9 96.16,-65.2 l -40.35,-40.4 c -47.22,47.2 -106.45,71.3 -177.71,71.3 -47.22,0 -91.01,-11.2 -129.63,-32.7 -38.64,-21.4 -69.54,-51.5 -91,-89.2 -22.32,-37.8 -33.49,-79.9 -33.49,-127.1 0,-47.2 11.17,-89.3 33.49,-127 21.46,-37.8 52.36,-67.9 91,-89.3 38.62,-21.5 82.41,-32.7 129.63,-32.7 72.12,0 131.35,24.1 177.71,72.2 l 40.35,-40.4 c -26.62,-28.3 -58.38,-50.6 -96.16,-65.2 -38.63,-15.5 -79.83,-23.2 -124.48,-23.2" />
      <path
         inkscape:connector-curvature="0"
         id="path72"
         style="fill:#c5a15b;fill-opacity:1;fill-rule:nonzero;stroke:none"
         d="m 4805.9,29549.6 -33.93,40.8 -33.95,-40.8 33.95,-40.8 z m -33.93,-153.7 33.93,40.8 -33.93,40.8 -33.95,-40.8 z m -56.58,-68 43.63,52.4 -33.94,40.8 -44.85,-53.9 -12.91,15.6 44.86,53.9 -34,40.9 -44.77,-53.8 -12.97,15.5 42.65,51.3 h -0.66 l 2.54,2.5 -2.54,2.6 h 0.66 l -42.65,51.3 12.97,15.5 44.77,-53.8 34,40.9 -44.86,53.9 12.91,15.6 44.85,-53.9 33.94,40.8 -44.93,54 12.94,15.6 44.92,-54 69.31,84.3 v -31.6 l -56.34,-68.3 c 15.63,-18.8 31.21,-37.7 46.91,-56.4 -15.02,-17.9 -29.93,-35.9 -44.87,-53.9 h 0.24 l -2.17,-2.6 2.17,-2.5 h -0.24 c 14.94,-18 29.85,-36 44.87,-53.9 -15.7,-18.7 -31.28,-37.6 -46.91,-56.4 l 56.34,-68.3 v -31.6 l -69.31,84.3 -44.92,-54 -12.94,15.6 z m -22.11,167.8 h 0.04 l -1.49,-1.7 -0.66,-0.9 0.66,-0.8 1.49,-1.7 h -0.04 l 31.85,-38.3 31.85,38.3 h -0.23 l 2.16,2.5 -2.16,2.6 h 0.23 l -31.85,38.3" />
      <path
         inkscape:connector-curvature="0"
         id="path74"
         style="fill:#c5a15b;fill-opacity:1;fill-rule:nonzero;stroke:none"
         d="m 3626.96,29549.6 33.94,40.8 33.94,-40.8 -33.94,-40.8 z m 33.94,-153.7 -33.94,40.8 33.94,40.8 33.94,-40.8 z m 56.58,-68 -43.64,52.4 33.95,40.8 44.84,-53.9 12.92,15.6 -44.86,53.9 33.99,40.9 44.77,-53.8 12.98,15.5 -42.66,51.3 h 0.66 l -2.54,2.5 2.54,2.6 h -0.66 l 42.66,51.3 -12.98,15.5 -44.77,-53.8 -33.99,40.9 44.86,53.9 -12.92,15.6 -44.84,-53.9 -33.95,40.8 44.93,54 -12.93,15.6 -44.93,-54 -69.3,84.3 v -31.6 l 56.34,-68.3 c -15.63,-18.8 -31.21,-37.7 -46.92,-56.4 15.02,-17.9 29.93,-35.9 44.87,-53.9 h -0.23 l 2.17,-2.6 -2.17,-2.5 h 0.23 c -14.94,-18 -29.85,-36 -44.87,-53.9 15.71,-18.7 31.29,-37.6 46.92,-56.4 l -56.34,-68.3 v -31.6 l 69.3,84.3 44.93,-54 12.93,15.6 z m 22.11,167.8 h -0.05 l 1.5,-1.7 0.66,-0.9 -0.66,-0.8 -1.5,-1.7 h 0.05 l -31.86,-38.3 -31.84,38.3 h 0.23 l -2.17,2.5 2.17,2.6 h -0.23 l 31.84,38.3" />
    </g>
  </g>
</svg>
